# This file uses centimeters as units for non-parametric coordinates.

mtllib Bucket.mtl
g default
v 0.243492 1.144781 -0.668988
v -0.300871 1.144781 -0.645221
v -0.668988 1.144781 -0.243492
v -0.645221 1.144781 -0.185750
v 0.558294 1.144781 0.334231
v 0.668988 1.144781 0.243492
v 0.645221 1.144781 -0.300872
v 0.243492 1.185230 -0.668988
v -0.300871 1.185230 -0.645221
v -0.668988 1.185230 -0.243492
v -0.645221 1.185230 -0.185750
v 0.558294 1.185230 0.334231
v 0.668988 1.185230 0.243492
v 0.645221 1.185230 -0.300872
v 0.226870 1.144781 -0.623319
v -0.280332 1.144781 -0.601174
v -0.623319 1.144781 -0.226870
v -0.601174 1.144781 -0.206289
v 0.537755 1.144781 0.290185
v 0.623319 1.144781 0.226870
v 0.601174 1.144781 -0.280332
v 0.226870 1.185230 -0.623319
v -0.280332 1.185230 -0.601174
v -0.623319 1.185230 -0.226870
v -0.601174 1.185230 -0.206289
v 0.537755 1.185230 0.290185
v 0.623319 1.185230 0.226870
v 0.601174 1.185230 -0.280332
vt 0.610485 0.045765
vt 0.500000 0.000000
vt 0.389515 0.045765
vt 0.343750 0.156250
vt 0.500000 0.312500
vt 0.610485 0.266735
vt 0.656250 0.156250
vt 0.375000 0.312500
vt 0.406250 0.312500
vt 0.437500 0.312500
vt 0.468750 0.312500
vt 0.531250 0.312500
vt 0.562500 0.312500
vt 0.593750 0.312500
vt 0.625000 0.312500
vt 0.375000 0.687500
vt 0.406250 0.687500
vt 0.437500 0.687500
vt 0.468750 0.687500
vt 0.531250 0.687500
vt 0.562500 0.687500
vt 0.593750 0.687500
vt 0.625000 0.687500
vt 0.610485 0.733265
vt 0.500000 0.687500
vt 0.343750 0.843750
vt 0.389515 0.954235
vt 0.500000 1.000000
vt 0.610485 0.954235
vt 0.656250 0.843750
vt 0.500000 0.000000
vt 0.610485 0.045765
vt 0.389515 0.045765
vt 0.343750 0.156250
vt 0.500000 0.312500
vt 0.610485 0.266735
vt 0.656250 0.156250
vt 0.610485 0.954235
vt 0.500000 1.000000
vt 0.389515 0.954235
vt 0.343750 0.843750
vt 0.500000 0.687500
vt 0.610485 0.733265
vt 0.656250 0.843750
vn -0.043619 0.000000 -0.999048
vn -0.043619 0.000000 -0.999048
vn -0.043619 0.000000 -0.999048
vn -0.043619 0.000000 -0.999048
vn -0.737277 0.000000 -0.675590
vn -0.737277 0.000000 -0.675590
vn -0.737277 0.000000 -0.675590
vn -0.737277 0.000000 -0.675590
vn -0.924728 0.000000 0.380630
vn -0.924728 0.000000 0.380630
vn -0.924728 0.000000 0.380630
vn -0.924728 0.000000 0.380630
vn 0.633954 0.000000 0.773371
vn 0.633954 0.000000 0.773371
vn 0.633954 0.000000 0.773371
vn 0.633954 0.000000 0.773371
vn 0.999048 0.000000 -0.043619
vn 0.999048 0.000000 -0.043619
vn 0.999048 0.000000 -0.043619
vn 0.999048 0.000000 -0.043619
vn 0.675590 0.000000 -0.737277
vn 0.675590 0.000000 -0.737277
vn 0.675590 0.000000 -0.737277
vn 0.675590 0.000000 -0.737277
vn 0.000000 -1.000000 0.000000
vn 0.000000 -1.000000 0.000000
vn 0.000000 -1.000000 0.000000
vn 0.000000 -1.000000 0.000000
vn 0.000000 -1.000000 0.000000
vn 0.000000 -1.000000 0.000000
vn 0.000000 -1.000000 0.000000
vn 0.000000 -1.000000 0.000000
vn 0.000000 -1.000000 0.000000
vn 0.000000 -1.000000 0.000000
vn 0.000000 -1.000000 0.000000
vn 0.000000 -1.000000 0.000000
vn 0.000000 -1.000000 0.000000
vn 0.000000 -1.000000 0.000000
vn 0.000000 1.000000 0.000000
vn 0.000000 1.000000 0.000000
vn 0.000000 1.000000 0.000000
vn 0.000000 1.000000 0.000000
vn 0.000000 1.000000 0.000000
vn 0.000000 1.000000 0.000000
vn 0.000000 1.000000 0.000000
vn 0.000000 1.000000 0.000000
vn 0.000000 1.000000 0.000000
vn 0.000000 1.000000 0.000000
vn 0.000000 1.000000 0.000000
vn 0.000000 1.000000 0.000000
vn 0.000000 1.000000 0.000000
vn 0.000000 1.000000 0.000000
s off
g pCylinder2 group1
usemtl initialShadingGroup
f 1/8/1 2/9/2 9/17/3 8/16/4
f 2/9/5 3/10/6 10/18/7 9/17/8
f 3/10/9 4/11/10 11/19/11 10/18/12
f 5/12/13 6/13/14 13/21/15 12/20/16
f 6/13/17 7/14/18 14/22/19 13/21/20
f 7/14/21 1/15/22 8/23/23 14/22/24
s 1
f 2/2/25 1/1/26 15/32/27 16/31/28
f 3/3/29 2/2/25 16/31/28 17/33/30
f 4/4/31 3/3/29 17/33/30 18/34/32
f 6/6/33 5/5/34 19/35/35 20/36/36
f 7/7/37 6/6/33 20/36/36 21/37/38
f 1/1/26 7/7/37 21/37/38 15/32/27
s 3
f 8/29/39 9/28/40 23/39/41 22/38/42
f 9/28/40 10/27/43 24/40/44 23/39/41
f 10/27/43 11/26/45 25/41/46 24/40/44
f 12/25/47 13/24/48 27/43/49 26/42/50
f 13/24/48 14/30/51 28/44/52 27/43/49
f 14/30/51 8/29/39 22/38/42 28/44/52
g default
v 0.377840 -0.036588 -0.377840
v 0.000000 -0.036588 -0.534347
v -0.377840 -0.036588 -0.377840
v -0.534347 -0.036588 0.000000
v -0.377840 -0.036588 0.377840
v 0.000000 -0.036588 0.534347
v 0.377840 -0.036588 0.377840
v 0.534347 -0.036588 0.000000
v 0.510442 1.068768 -0.510442
v -0.000000 1.068768 -0.721873
v -0.510442 1.068768 -0.510442
v -0.721873 1.068768 -0.000000
v -0.510442 1.068768 0.510442
v -0.000000 1.068768 0.721873
v 0.510442 1.068768 0.510442
v 0.721873 1.068768 -0.000000
v 0.340583 -0.036588 -0.340583
v 0.000000 -0.036588 -0.481657
v -0.340583 -0.036588 -0.340583
v -0.481657 -0.036588 0.000000
v -0.340583 -0.036588 0.340583
v 0.000000 -0.036588 0.481657
v 0.340583 -0.036588 0.340583
v 0.481657 -0.036588 0.000000
v 0.340583 0.009200 -0.340583
v 0.000000 0.009200 -0.481657
v 0.000000 0.009200 0.000000
v -0.340583 0.009200 -0.340583
v -0.481657 0.009200 0.000000
v -0.340583 0.009200 0.340583
v 0.000000 0.009200 0.481657
v 0.340583 0.009200 0.340583
v 0.481657 0.009200 0.000000
v 0.452366 1.068768 -0.452366
v -0.000000 1.068768 -0.639741
v -0.452366 1.068768 -0.452366
v -0.639741 1.068768 -0.000000
v -0.452366 1.068768 0.452365
v -0.000000 1.068768 0.639741
v 0.452366 1.068768 0.452366
v 0.639741 1.068768 -0.000000
v 0.362499 0.014035 -0.362499
v -0.000000 0.014035 -0.512651
v -0.000000 0.014035 0.000000
v -0.362499 0.014035 -0.362499
v -0.512651 0.014035 0.000000
v -0.362499 0.014035 0.362499
v -0.000000 0.014035 0.512651
v 0.362499 0.014035 0.362499
v 0.512651 0.014035 0.000000
v 0.495646 0.970143 -0.495646
v 0.700950 0.970143 -0.000000
v 0.495646 0.970143 0.495646
v -0.000000 0.970143 0.700950
v -0.495646 0.970143 0.495646
v -0.700950 0.970143 -0.000000
v -0.495646 0.970143 -0.495646
v -0.000000 0.970143 -0.700950
v 0.511827 0.970143 -0.511827
v 0.723832 0.970143 -0.000000
v 0.530238 1.068769 -0.530238
v 0.749870 1.068769 -0.000000
v 0.511827 0.970143 0.511827
v 0.530238 1.068769 0.530239
v -0.000000 0.970143 0.723832
v -0.000000 1.068769 0.749870
v -0.511827 0.970143 0.511826
v -0.530239 1.068769 0.530238
v -0.723832 0.970143 -0.000000
v -0.749870 1.068769 -0.000000
v -0.511827 0.970143 -0.511827
v -0.530239 1.068769 -0.530239
v 0.000000 0.970143 -0.723832
v -0.000000 1.068769 -0.749870
v -0.549103 1.068768 -0.366984
v -0.647771 1.068768 -0.128778
v -0.609443 1.068768 -0.128778
v -0.522001 1.068768 -0.339882
v 0.549103 1.068769 0.366984
v 0.647771 1.068769 0.128778
v 0.609443 1.068769 0.128778
v 0.522001 1.068769 0.339882
v -0.549103 1.213424 -0.366984
v -0.647771 1.213424 -0.128778
v -0.609443 1.213424 -0.128778
v -0.522001 1.213424 -0.339882
v 0.549103 1.213424 0.366984
v 0.647771 1.213424 0.128778
v 0.609443 1.213424 0.128778
v 0.522001 1.213424 0.339882
vt 0.610485 0.045765
vt 0.500000 0.000000
vt 0.389515 0.045765
vt 0.343750 0.156250
vt 0.389515 0.266735
vt 0.500000 0.312500
vt 0.610485 0.266735
vt 0.656250 0.156250
vt 0.375000 0.312500
vt 0.406250 0.312500
vt 0.437500 0.312500
vt 0.468750 0.312500
vt 0.500000 0.312500
vt 0.531250 0.312500
vt 0.562500 0.312500
vt 0.593750 0.312500
vt 0.625000 0.312500
vt 0.375000 0.687500
vt 0.406250 0.687500
vt 0.437500 0.687500
vt 0.468750 0.687500
vt 0.500000 0.687500
vt 0.531250 0.687500
vt 0.562500 0.687500
vt 0.593750 0.687500
vt 0.625000 0.687500
vt 0.610485 0.733265
vt 0.500000 0.687500
vt 0.389515 0.733265
vt 0.343750 0.843750
vt 0.389515 0.954235
vt 0.500000 1.000000
vt 0.610485 0.954235
vt 0.656250 0.843750
vt 0.500000 0.156250
vt 0.500000 0.843750
vt 0.500000 0.000000
vt 0.610485 0.045765
vt 0.389515 0.045765
vt 0.343750 0.156250
vt 0.389515 0.266735
vt 0.500000 0.312500
vt 0.610485 0.266735
vt 0.656250 0.156250
vt 0.500000 0.000000
vt 0.610485 0.045765
vt 0.389515 0.045765
vt 0.343750 0.156250
vt 0.389515 0.266735
vt 0.500000 0.312500
vt 0.610485 0.266735
vt 0.656250 0.156250
vt 0.610485 0.954235
vt 0.500000 1.000000
vt 0.389515 0.954235
vt 0.343750 0.843750
vt 0.389515 0.733265
vt 0.500000 0.687500
vt 0.610485 0.733265
vt 0.656250 0.843750
vt 0.610485 0.954235
vt 0.500000 1.000000
vt 0.389515 0.954235
vt 0.343750 0.843750
vt 0.389515 0.733265
vt 0.500000 0.687500
vt 0.610485 0.733265
vt 0.656250 0.843750
vt 0.625000 0.653803
vt 0.375000 0.653803
vt 0.593750 0.653803
vt 0.562500 0.653803
vt 0.531250 0.653803
vt 0.500000 0.653803
vt 0.468750 0.653803
vt 0.437500 0.653803
vt 0.406250 0.653803
vt 0.593750 0.653803
vt 0.625000 0.653803
vt 0.625000 0.687500
vt 0.593750 0.687500
vt 0.562500 0.653803
vt 0.562500 0.687500
vt 0.531250 0.653803
vt 0.531250 0.687500
vt 0.500000 0.653803
vt 0.500000 0.687500
vt 0.468750 0.653803
vt 0.468750 0.687500
vt 0.437500 0.653803
vt 0.437500 0.687500
vt 0.406250 0.653803
vt 0.406250 0.687500
vt 0.375000 0.653803
vt 0.375000 0.687500
vt 0.389515 0.954235
vt 0.343750 0.843750
vt 0.343750 0.843750
vt 0.389515 0.954235
vt 0.610485 0.733265
vt 0.656250 0.843750
vt 0.656250 0.843750
vt 0.610485 0.733265
vt 0.389515 0.954235
vt 0.343750 0.843750
vt 0.343750 0.843750
vt 0.389515 0.954235
vt 0.610485 0.733265
vt 0.656250 0.843750
vt 0.656250 0.843750
vt 0.610485 0.733265
vn 0.378288 -0.151136 -0.913267
vn 0.378288 -0.151136 -0.913267
vn 0.378288 -0.151136 -0.913267
vn 0.378288 -0.151136 -0.913267
vn -0.378288 -0.151136 -0.913267
vn -0.378288 -0.151136 -0.913267
vn -0.378288 -0.151136 -0.913267
vn -0.378288 -0.151136 -0.913267
vn -0.913267 -0.151136 -0.378287
vn -0.913267 -0.151136 -0.378287
vn -0.913267 -0.151136 -0.378287
vn -0.913267 -0.151136 -0.378287
vn -0.913267 -0.151136 0.378287
vn -0.913267 -0.151136 0.378287
vn -0.913267 -0.151136 0.378287
vn -0.913267 -0.151136 0.378287
vn -0.378288 -0.151136 0.913267
vn -0.378288 -0.151136 0.913267
vn -0.378288 -0.151136 0.913267
vn -0.378288 -0.151136 0.913267
vn 0.378287 -0.151136 0.913267
vn 0.378287 -0.151136 0.913267
vn 0.378287 -0.151136 0.913267
vn 0.378287 -0.151136 0.913267
vn 0.913267 -0.151136 0.378288
vn 0.913267 -0.151136 0.378288
vn 0.913267 -0.151136 0.378288
vn 0.913267 -0.151136 0.378288
vn 0.913267 -0.151136 -0.378288
vn 0.913267 -0.151136 -0.378288
vn 0.913267 -0.151136 -0.378288
vn 0.913267 -0.151136 -0.378288
vn 0.000000 -1.000000 0.000000
vn 0.000000 -1.000000 0.000000
vn 0.000000 -1.000000 0.000000
vn 0.000000 -1.000000 0.000000
vn 0.000000 -1.000000 0.000000
vn 0.000000 -1.000000 0.000000
vn 0.000000 -1.000000 0.000000
vn 0.000000 -1.000000 0.000000
vn 0.000000 -1.000000 0.000000
vn 0.000000 1.000000 -0.000000
vn 0.000000 1.000000 0.000000
vn 0.000000 1.000000 -0.000000
vn 0.000000 1.000000 0.000000
vn 0.000000 1.000000 0.000000
vn 0.000000 1.000000 0.000000
vn 0.000000 1.000000 0.000000
vn 0.000000 1.000000 0.000000
vn 0.000000 1.000000 -0.000000
vn 0.000000 -1.000000 -0.000001
vn 0.000000 -1.000000 -0.000000
vn 0.000000 -1.000000 -0.000000
vn 0.000000 -1.000000 -0.000001
vn 0.000000 -1.000000 -0.000000
vn 0.000000 -1.000000 -0.000000
vn 0.000000 -1.000000 -0.000000
vn 0.000000 -1.000000 -0.000000
vn 0.000000 -1.000000 0.000000
vn 0.000000 -1.000000 0.000000
vn 0.000000 -1.000000 0.000001
vn 0.000000 -1.000000 0.000001
vn 0.000000 -1.000000 0.000000
vn 0.000000 -1.000000 0.000000
vn 0.000000 -1.000000 0.000000
vn 0.000000 -1.000000 0.000000
vn -0.382684 0.000000 0.923879
vn -0.382684 0.000000 0.923879
vn -0.382684 0.000000 0.923879
vn -0.382684 0.000000 0.923879
vn 0.382684 0.000000 0.923879
vn 0.382684 0.000000 0.923879
vn 0.382684 0.000000 0.923879
vn 0.382684 0.000000 0.923879
vn 0.923880 0.000000 0.382683
vn 0.923880 0.000000 0.382683
vn 0.923880 0.000000 0.382683
vn 0.923880 0.000000 0.382683
vn 0.923880 0.000000 -0.382683
vn 0.923880 0.000000 -0.382683
vn 0.923880 0.000000 -0.382683
vn 0.923880 0.000000 -0.382683
vn 0.382684 0.000000 -0.923879
vn 0.382684 0.000000 -0.923879
vn 0.382684 0.000000 -0.923879
vn 0.382684 0.000000 -0.923879
vn -0.382684 0.000000 -0.923879
vn -0.382684 0.000000 -0.923879
vn -0.382684 0.000000 -0.923879
vn -0.382684 0.000000 -0.923879
vn -0.923880 0.000000 -0.382683
vn -0.923880 0.000000 -0.382683
vn -0.923880 0.000000 -0.382683
vn -0.923880 0.000000 -0.382683
vn -0.923880 0.000000 0.382683
vn -0.923880 0.000000 0.382683
vn -0.923880 0.000000 0.382683
vn -0.923880 0.000000 0.382683
vn -0.000005 1.000000 0.000005
vn -0.000000 1.000000 0.000007
vn 0.000000 1.000000 0.000000
vn 0.000000 1.000000 0.000000
vn 0.000007 1.000000 0.000007
vn 0.000000 1.000000 0.000000
vn 0.000000 1.000000 0.000000
vn 0.000000 1.000000 0.000000
vn 0.000000 1.000000 0.000000
vn 0.000000 1.000000 0.000000
vn 0.000009 1.000000 0.000000
vn 0.000005 1.000000 -0.000005
vn 0.000000 1.000000 -0.000000
vn 0.000000 1.000000 0.000000
vn 0.000000 1.000000 -0.000007
vn 0.000000 1.000000 -0.000000
vn -0.000007 1.000000 -0.000007
vn -0.000000 1.000000 -0.000000
vn 0.000000 1.000000 -0.000000
vn 0.000000 1.000000 -0.000000
vn 0.000000 1.000000 -0.000000
vn 0.000000 1.000000 -0.000000
vn -0.000009 1.000000 -0.000000
vn -0.000000 1.000000 -0.000001
vn -0.380334 0.110640 0.918207
vn -0.380334 0.110640 0.918207
vn -0.380334 0.110640 0.918207
vn -0.380334 0.110640 0.918207
vn 0.380334 0.110640 0.918207
vn 0.380334 0.110640 0.918207
vn 0.380334 0.110640 0.918207
vn 0.380334 0.110640 0.918207
vn 0.918207 0.110640 0.380334
vn 0.918207 0.110640 0.380334
vn 0.918207 0.110640 0.380334
vn 0.918207 0.110640 0.380334
vn 0.918207 0.110640 -0.380334
vn 0.918207 0.110640 -0.380334
vn 0.918207 0.110640 -0.380334
vn 0.918207 0.110640 -0.380334
vn 0.380334 0.110640 -0.918207
vn 0.380334 0.110640 -0.918207
vn 0.380334 0.110640 -0.918207
vn 0.380334 0.110640 -0.918207
vn -0.380334 0.110640 -0.918207
vn -0.380334 0.110640 -0.918207
vn -0.380334 0.110640 -0.918207
vn -0.380334 0.110640 -0.918207
vn -0.918207 0.110640 -0.380334
vn -0.918207 0.110640 -0.380334
vn -0.918207 0.110640 -0.380334
vn -0.918207 0.110640 -0.380334
vn -0.918207 0.110640 0.380334
vn -0.918207 0.110640 0.380334
vn -0.918207 0.110640 0.380334
vn -0.918207 0.110640 0.380334
vn 0.897565 -0.236967 -0.371784
vn 0.897565 -0.236967 -0.371784
vn 0.897565 -0.236967 -0.371784
vn 0.897565 -0.236967 -0.371784
vn 0.897565 -0.236966 0.371784
vn 0.897565 -0.236966 0.371784
vn 0.897565 -0.236966 0.371784
vn 0.897565 -0.236966 0.371784
vn 0.371784 -0.236967 0.897565
vn 0.371784 -0.236967 0.897565
vn 0.371784 -0.236967 0.897565
vn 0.371784 -0.236967 0.897565
vn -0.371784 -0.236967 0.897565
vn -0.371784 -0.236967 0.897565
vn -0.371784 -0.236967 0.897565
vn -0.371784 -0.236967 0.897565
vn -0.897565 -0.236967 0.371784
vn -0.897565 -0.236967 0.371784
vn -0.897565 -0.236967 0.371784
vn -0.897565 -0.236967 0.371784
vn -0.897565 -0.236968 -0.371784
vn -0.897565 -0.236968 -0.371784
vn -0.897565 -0.236968 -0.371784
vn -0.897565 -0.236968 -0.371784
vn -0.371783 -0.236967 -0.897565
vn -0.371783 -0.236967 -0.897565
vn -0.371783 -0.236967 -0.897565
vn -0.371783 -0.236967 -0.897565
vn 0.371784 -0.236967 -0.897565
vn 0.371784 -0.236967 -0.897565
vn 0.371784 -0.236967 -0.897565
vn 0.371784 -0.236967 -0.897565
vn 0.000006 -1.000000 0.000000
vn 0.000004 -1.000000 -0.000004
vn 0.000004 -1.000000 -0.000004
vn 0.000006 -1.000000 0.000000
vn -0.000019 1.000000 -0.000000
vn -0.000013 1.000000 0.000013
vn 0.000004 -1.000000 0.000004
vn 0.000004 -1.000000 0.000004
vn -0.000013 1.000000 -0.000013
vn -0.000000 -1.000000 0.000006
vn -0.000000 -1.000000 0.000006
vn 0.000000 1.000000 -0.000019
vn -0.000004 -1.000000 0.000004
vn -0.000004 -1.000000 0.000004
vn 0.000013 1.000000 -0.000014
vn -0.000006 -1.000000 -0.000000
vn -0.000006 -1.000000 -0.000000
vn 0.000019 1.000000 0.000000
vn -0.000004 -1.000000 -0.000003
vn -0.000004 -1.000000 -0.000003
vn 0.000013 1.000000 0.000014
vn -0.000000 -1.000000 -0.000005
vn 0.000000 -1.000000 -0.000005
vn -0.000000 1.000000 0.000019
vn 0.000000 1.000000 -0.000000
vn 0.000000 1.000000 -0.000000
vn 0.000000 1.000000 0.000000
vn 0.000000 1.000000 0.000000
vn 0.000007 1.000000 0.000003
vn 0.000007 1.000000 0.000004
vn -0.000008 1.000000 -0.000004
vn -0.000008 1.000000 -0.000003
vn -0.923880 -0.000000 -0.382683
vn -0.923880 -0.000000 -0.382683
vn -0.923880 -0.000000 -0.382683
vn -0.923880 -0.000000 -0.382683
vn 0.000000 -0.000000 1.000000
vn 0.000000 -0.000000 1.000000
vn 0.000000 -0.000000 1.000000
vn 0.000000 -0.000000 1.000000
vn 0.923879 -0.000000 0.382684
vn 0.923879 -0.000000 0.382684
vn 0.923879 -0.000000 0.382684
vn 0.923879 -0.000000 0.382684
vn 0.707106 0.000000 -0.707108
vn 0.707106 0.000000 -0.707108
vn 0.707106 0.000000 -0.707108
vn 0.707106 0.000000 -0.707108
vn 0.923880 0.000000 0.382683
vn 0.923880 0.000000 0.382683
vn 0.923880 0.000000 0.382683
vn 0.923880 0.000000 0.382683
vn -0.000000 -0.000000 -1.000000
vn -0.000000 -0.000000 -1.000000
vn -0.000000 -0.000000 -1.000000
vn -0.000000 -0.000000 -1.000000
vn -0.923879 0.000000 -0.382684
vn -0.923879 0.000000 -0.382684
vn -0.923879 0.000000 -0.382684
vn -0.923880 0.000000 -0.382684
vn -0.707107 0.000000 0.707106
vn -0.707107 0.000000 0.707106
vn -0.707107 0.000000 0.707106
vn -0.707107 0.000000 0.707106
s off
g group1 pCylinder1
usemtl initialShadingGroup
f 29/53/53 30/54/54 86/121/55 79/114/56
f 30/54/57 31/55/58 85/120/59 86/121/60
f 31/55/61 32/56/62 84/119/63 85/120/64
f 32/56/65 33/57/66 83/118/67 84/119/68
f 33/57/69 34/58/70 82/117/71 83/118/72
f 34/58/73 35/59/74 81/116/75 82/117/76
f 35/59/77 36/60/78 80/115/79 81/116/80
f 36/60/81 29/61/82 79/113/83 80/115/84
s 1
f 54/89/85 53/90/86 55/79/87
f 56/91/88 54/89/85 55/79/87
f 57/92/89 56/91/88 55/79/87
f 58/93/90 57/92/89 55/79/87
f 59/94/91 58/93/90 55/79/87
f 60/95/92 59/94/91 55/79/87
f 61/96/93 60/95/92 55/79/87
f 53/90/86 61/96/93 55/79/87
s 2
f 70/105/94 71/106/95 72/80/96
f 71/106/95 73/107/97 72/80/96
f 73/107/97 74/108/98 72/80/96
f 74/108/98 75/109/99 72/80/96
f 75/109/99 76/110/100 72/80/96
f 76/110/100 77/111/101 72/80/96
f 77/111/101 78/112/102 72/80/96
f 78/112/102 70/105/94 72/80/96
s 3
f 30/46/103 29/45/104 45/82/105 46/81/106
f 31/47/107 30/46/103 46/81/106 47/83/108
f 32/48/109 31/47/107 47/83/108 48/84/110
f 33/49/111 32/48/109 48/84/110 49/85/112
f 34/50/113 33/49/111 49/85/112 50/86/114
f 35/51/115 34/50/113 50/86/114 51/87/116
f 36/52/117 35/51/115 51/87/116 52/88/118
f 29/45/104 36/52/117 52/88/118 45/82/105
s off
f 46/81/119 45/82/120 53/90/121 54/89/122
f 47/83/123 46/81/124 54/89/125 56/91/126
f 48/84/127 47/83/128 56/91/129 57/92/130
f 49/85/131 48/84/132 57/92/133 58/93/134
f 50/86/135 49/85/136 58/93/137 59/94/138
f 51/87/139 50/86/140 59/94/141 60/95/142
f 52/88/143 51/87/144 60/95/145 61/96/146
f 45/82/147 52/88/148 61/96/149 53/90/150
s 4
f 37/77/151 38/76/152 63/98/153 62/97/154
f 38/76/152 39/75/155 64/99/156 63/98/153
s off
f 111/148/157 112/149/158 113/150/159 114/151/160
s 4
f 40/74/161 41/73/162 66/101/163 65/100/164
f 41/73/162 42/72/165 67/102/166 66/101/163
f 42/72/165 43/71/167 68/103/168 67/102/166
s off
f 115/152/169 116/153/170 117/154/171 118/155/172
s 4
f 44/78/173 37/77/151 62/97/154 69/104/174
s off
f 62/97/175 63/98/176 71/106/177 70/105/178
f 63/98/179 64/99/180 73/107/181 71/106/182
f 64/99/183 65/100/184 74/108/185 73/107/186
f 65/100/187 66/101/188 75/109/189 74/108/190
f 66/101/191 67/102/192 76/110/193 75/109/194
f 67/102/195 68/103/196 77/111/197 76/110/198
f 68/103/199 69/104/200 78/112/201 77/111/202
f 69/104/203 62/97/204 70/105/205 78/112/206
f 88/122/207 87/123/208 89/124/209 90/125/210
f 91/126/211 88/122/212 90/125/213 92/127/214
f 93/128/215 91/126/216 92/127/217 94/129/218
f 95/130/219 93/128/220 94/129/221 96/131/222
f 97/132/223 95/130/224 96/131/225 98/133/226
f 99/134/227 97/132/228 98/133/229 100/135/230
f 101/136/231 99/134/232 100/135/233 102/137/234
f 87/138/235 101/136/236 102/137/237 89/139/238
s 6
f 80/115/239 79/113/240 87/123/241 88/122/242
s 4
f 37/70/151 44/69/173 90/125/243 89/124/244
s 6
f 81/116/245 80/115/239 88/122/242 91/126/246
s 4
f 44/69/173 43/68/167 92/127/247 90/125/243
s 6
f 82/117/248 81/116/245 91/126/246 93/128/249
s 4
f 43/68/167 42/67/165 94/129/250 92/127/247
s 6
f 83/118/251 82/117/248 93/128/249 95/130/252
s 4
f 42/67/165 41/66/162 96/131/253 94/129/250
s 6
f 84/119/254 83/118/251 95/130/252 97/132/255
s 4
f 41/66/162 40/65/161 98/133/256 96/131/253
s 6
f 85/120/257 84/119/254 97/132/255 99/134/258
s 4
f 40/65/161 39/64/155 100/135/259 98/133/256
s 6
f 86/121/260 85/120/257 99/134/258 101/136/261
s 4
f 39/64/155 38/63/152 102/137/262 100/135/259
s 6
f 79/114/240 86/121/260 101/136/261 87/138/241
s 4
f 38/63/152 37/62/151 89/139/244 102/137/262
f 39/75/155 40/74/161 104/141/263 103/140/264
f 40/74/161 65/100/164 105/142/265 104/141/263
f 65/100/164 64/99/156 106/143/266 105/142/265
f 64/99/156 39/75/155 103/140/264 106/143/266
f 43/71/167 44/78/173 108/145/267 107/144/268
f 44/78/173 69/104/174 109/146/269 108/145/267
f 69/104/174 68/103/168 110/147/270 109/146/269
f 68/103/168 43/71/167 107/144/268 110/147/270
s off
f 103/140/271 104/141/272 112/149/273 111/148/274
f 104/141/275 105/142/276 113/150/277 112/149/278
f 105/142/279 106/143/280 114/151/281 113/150/282
f 106/143/283 103/140/284 111/148/285 114/151/286
f 107/144/287 108/145/288 116/153/289 115/152/290
f 108/145/291 109/146/292 117/154/293 116/153/294
f 109/146/295 110/147/296 118/155/297 117/154/298
f 110/147/299 107/144/300 115/152/301 118/155/302
