# This file uses centimeters as units for non-parametric coordinates.

mtllib Drain.mtl
g default
v 0.227205 0.707107 -0.707107
v 0.227205 -0.033081 -1.000000
v 0.227205 -0.033081 -0.707107
v 0.227205 -0.033081 0.000000
v 0.227205 -0.033081 0.707107
v 0.227205 -0.033081 1.000000
v 0.227205 0.707107 0.707107
v 0.227205 1.000000 0.000000
v -0.227205 0.707107 -0.707107
v -0.227205 -0.033081 -1.000000
v -0.227205 -0.033081 -0.707107
v -0.227205 -0.033081 0.000000
v -0.227205 -0.033081 0.707107
v -0.227205 -0.033081 1.000000
v -0.227205 0.707107 0.707107
v -0.227205 1.000000 0.000000
v 0.227205 -0.033081 0.000000
v -0.227205 -0.033081 0.000000
v 0.227205 0.633685 -0.637401
v 0.227205 0.018668 -0.901773
v 0.227205 0.018668 0.000000
v 0.227205 0.018668 0.901773
v 0.227205 0.633685 0.637401
v 0.227205 0.898321 0.000000
v -0.227205 0.633685 -0.637401
v -0.227205 0.018668 -0.901773
v -0.227205 0.018668 0.000000
v -0.227205 0.018668 0.901773
v -0.227205 0.633685 0.637401
v -0.227205 0.898321 0.000000
v 0.227205 0.633685 -0.637401
v 0.227205 0.018668 -0.901773
v 0.227205 0.018668 0.000000
v 0.227205 0.018668 0.901773
v 0.227205 0.633685 0.637401
v 0.227205 0.898321 0.000000
v -0.227205 0.633685 -0.637401
v -0.227205 0.018668 -0.901773
v -0.227205 0.018668 0.000000
v -0.227205 0.018668 0.901773
v -0.227205 0.633685 0.637401
v -0.227205 0.898321 0.000000
v -0.027091 0.633685 -0.637401
v -0.027091 0.018668 -0.901773
v -0.027091 0.018668 0.000000
v -0.027091 0.018668 0.901773
v -0.027091 0.633685 0.637401
v -0.027091 0.898321 0.000000
v -0.920180 0.633685 -0.637401
v -0.920180 0.018668 -0.901773
v -0.920180 0.018668 0.000000
v -0.920180 0.018668 0.901773
v -0.920180 0.633685 0.637401
v -0.920180 0.898321 0.000000
v -0.027091 0.633685 -0.637401
v -0.027091 0.018668 -0.901773
v -0.027091 0.018668 0.000000
v -0.027091 0.018668 0.901773
v -0.027091 0.633685 0.637401
v -0.027091 0.898321 0.000000
v -0.027091 0.601201 -0.603556
v -0.027091 0.041376 -0.853741
v -0.027091 0.041376 0.000000
v -0.027091 0.041376 0.853741
v -0.027091 0.601201 0.603556
v -0.027091 0.851522 0.000000
v -0.876145 0.601201 -0.603556
v -0.876145 0.041376 -0.853741
v -0.876145 0.041376 -0.000000
v -0.876145 0.041376 0.853741
v -0.876145 0.601201 0.603556
v -0.876145 0.851522 -0.000000
vt 0.610485 0.045765
vt 0.500000 0.000000
vt 0.389515 0.045765
vt 0.343750 0.156250
vt 0.389515 0.266735
vt 0.500000 0.312500
vt 0.610485 0.266735
vt 0.656250 0.156250
vt 0.375000 0.312500
vt 0.406250 0.312500
vt 0.437500 0.312500
vt 0.468750 0.312500
vt 0.500000 0.312500
vt 0.531250 0.312500
vt 0.562500 0.312500
vt 0.593750 0.312500
vt 0.625000 0.312500
vt 0.375000 0.687500
vt 0.406250 0.687500
vt 0.437500 0.687500
vt 0.468750 0.687500
vt 0.500000 0.687500
vt 0.531250 0.687500
vt 0.562500 0.687500
vt 0.593750 0.687500
vt 0.625000 0.687500
vt 0.610485 0.733265
vt 0.500000 0.687500
vt 0.389515 0.733265
vt 0.343750 0.843750
vt 0.389515 0.954235
vt 0.500000 1.000000
vt 0.610485 0.954235
vt 0.656250 0.843750
vt 0.500000 0.156250
vt 0.500000 0.843750
vt 0.500000 0.000000
vt 0.610485 0.045765
vt 0.500000 0.156250
vt 0.610485 0.266735
vt 0.500000 0.312500
vt 0.656250 0.156250
vt 0.610485 0.954235
vt 0.500000 1.000000
vt 0.500000 0.843750
vt 0.500000 0.687500
vt 0.610485 0.733265
vt 0.656250 0.843750
vt 0.500000 0.000000
vt 0.610485 0.045765
vt 0.500000 0.156250
vt 0.610485 0.266735
vt 0.500000 0.312500
vt 0.656250 0.156250
vt 0.610485 0.954235
vt 0.500000 1.000000
vt 0.500000 0.843750
vt 0.500000 0.687500
vt 0.610485 0.733265
vt 0.656250 0.843750
vt 0.500000 0.000000
vt 0.610485 0.045765
vt 0.500000 0.156250
vt 0.610485 0.266735
vt 0.500000 0.312500
vt 0.656250 0.156250
vt 0.610485 0.954235
vt 0.500000 1.000000
vt 0.500000 0.843750
vt 0.500000 0.687500
vt 0.610485 0.733265
vt 0.656250 0.843750
vt 0.500000 0.000000
vt 0.610485 0.045765
vt 0.500000 0.156250
vt 0.610485 0.266735
vt 0.500000 0.312500
vt 0.656250 0.156250
vt 0.500000 0.000000
vt 0.610485 0.045765
vt 0.500000 0.156250
vt 0.610485 0.266735
vt 0.500000 0.312500
vt 0.656250 0.156250
vt 0.500000 0.000000
vt 0.610485 0.045765
vt 0.500000 0.156250
vt 0.610485 0.266735
vt 0.500000 0.312500
vt 0.656250 0.156250
vn 0.000000 0.367942 -0.929849
vn 0.000000 0.367942 -0.929849
vn 0.000000 0.367942 -0.929849
vn 0.000000 0.367942 -0.929849
vn -0.000000 -1.000000 -0.000002
vn -0.000000 -1.000000 -0.000002
vn -0.000000 -1.000000 -0.000002
vn -0.000000 -1.000000 -0.000002
vn 0.000000 -1.000000 0.000000
vn 0.000000 -1.000000 0.000000
vn 0.000000 -1.000000 0.000000
vn 0.000000 -1.000000 0.000000
vn 0.000000 -1.000000 0.000000
vn 0.000000 -1.000000 0.000000
vn 0.000000 -1.000000 0.000000
vn 0.000000 -1.000000 0.000000
vn 0.000000 -1.000000 0.000002
vn 0.000000 -1.000000 0.000002
vn 0.000000 -1.000000 0.000002
vn 0.000000 -1.000000 0.000002
vn 0.000000 0.367942 0.929849
vn 0.000000 0.367942 0.929849
vn 0.000000 0.367942 0.929849
vn 0.000000 0.367942 0.929849
vn 0.000000 0.923880 0.382683
vn 0.000000 0.923880 0.382683
vn 0.000000 0.923880 0.382683
vn 0.000000 0.923880 0.382683
vn 0.000000 0.923880 -0.382684
vn 0.000000 0.923880 -0.382684
vn 0.000000 0.923880 -0.382684
vn 0.000000 0.923880 -0.382684
vn 1.000000 0.000000 0.000000
vn 1.000000 0.000000 0.000000
vn 1.000000 0.000000 0.000000
vn 1.000000 0.000000 0.000000
vn 1.000000 0.000000 -0.000000
vn 1.000000 0.000000 0.000000
vn 1.000000 0.000000 0.000000
vn 1.000000 0.000000 0.000000
vn 1.000000 0.000000 0.000000
vn 1.000000 0.000000 0.000000
vn 1.000000 0.000000 0.000000
vn 1.000000 0.000000 0.000000
vn -1.000000 0.000000 0.000000
vn -1.000000 0.000000 0.000000
vn -1.000000 0.000000 0.000000
vn -1.000000 0.000000 -0.000000
vn -1.000000 0.000000 0.000000
vn -1.000000 0.000000 0.000000
vn -1.000000 0.000000 0.000000
vn -1.000000 0.000000 0.000000
vn -1.000000 0.000000 0.000000
vn -1.000000 0.000000 0.000000
vn -1.000000 0.000000 -0.000000
vn -1.000000 0.000000 -0.000000
vn 1.000000 0.000000 -0.000000
vn 1.000000 0.000000 -0.000000
vn 1.000000 0.000000 -0.000000
vn 1.000000 0.000000 0.000000
vn 1.000000 0.000000 0.000000
vn 1.000000 0.000000 0.000000
vn 1.000000 0.000000 0.000000
vn 1.000000 0.000000 0.000000
vn 1.000000 0.000000 0.000000
vn -1.000000 0.000000 -0.000000
vn -1.000000 0.000000 -0.000000
vn -1.000000 0.000000 -0.000000
vn -1.000000 0.000000 0.000000
vn -1.000000 0.000000 0.000000
vn -1.000000 0.000000 0.000000
vn -1.000000 0.000000 0.000000
vn -1.000000 0.000000 0.000000
vn -1.000000 0.000000 0.000000
vn 0.000000 0.000000 0.000000
vn 0.000000 0.000000 0.000000
vn 0.000000 0.000000 0.000000
vn 0.000000 0.000000 0.000000
vn 0.000000 0.000000 0.000000
vn 0.000000 0.000000 0.000000
vn 0.000000 0.000000 0.000000
vn 0.000000 0.000000 0.000000
vn 0.000000 0.000000 0.000000
vn 0.000000 0.000000 0.000000
vn 0.000000 0.000000 0.000000
vn 0.000000 0.000000 0.000000
vn 0.000000 0.000000 0.000000
vn 0.000000 0.000000 0.000000
vn 0.000000 0.000000 0.000000
vn 0.000000 0.000000 0.000000
vn 0.000000 0.000000 0.000000
vn 0.000000 0.000000 0.000000
vn 0.000000 0.000000 0.000000
vn 0.000000 0.000000 0.000000
vn 0.000000 0.000000 0.000000
vn 0.000000 0.000000 0.000000
vn 0.000000 0.000000 0.000000
vn 0.000000 0.000000 0.000000
vn 0.000000 0.000000 0.000000
vn 0.000000 0.000000 0.000000
vn 0.000000 0.000000 0.000000
vn 0.000000 0.000000 0.000000
vn 0.000000 0.000000 0.000000
vn 0.000000 0.000000 0.000000
vn 0.000000 0.000000 0.000000
vn 0.000000 0.000000 0.000000
vn 0.000000 0.000000 0.000000
vn 0.000000 0.000000 0.000000
vn 0.000000 0.000000 0.000000
vn 0.000000 0.000000 0.000000
vn 0.000000 0.000000 0.000000
vn 0.000000 0.000000 0.000000
vn 0.000000 0.000000 0.000000
vn 0.000000 0.000000 0.000000
vn 0.000000 0.000000 0.000000
vn 0.000000 0.000000 0.000000
vn 0.000000 0.000000 0.000000
vn 0.000000 0.000000 0.000000
vn 0.000000 0.000000 0.000000
vn 0.000000 0.000000 0.000000
vn 0.000000 0.000000 0.000000
vn 0.000000 0.000000 0.000000
vn -0.000000 -0.394921 0.918715
vn -0.000000 -0.394921 0.918715
vn -0.000000 -0.394921 0.918715
vn -0.000000 -0.394921 0.918715
vn 0.000000 1.000000 0.000000
vn 0.000000 1.000000 0.000000
vn 0.000000 1.000000 0.000000
vn 0.000000 1.000000 0.000000
vn -0.000000 -0.394921 -0.918715
vn -0.000000 -0.394921 -0.918715
vn -0.000000 -0.394921 -0.918715
vn -0.000000 -0.394921 -0.918715
vn 0.000000 1.000000 0.000000
vn 0.000000 1.000000 0.000000
vn -0.000000 -0.923564 -0.383445
vn -0.000000 -0.923564 -0.383445
vn -0.000000 -0.923564 -0.383445
vn -0.000000 -0.923564 -0.383445
vn 0.000000 -0.923564 0.383445
vn 0.000000 -0.923564 0.383445
vn 0.000000 -0.923564 0.383445
vn 0.000000 -0.923564 0.383445
vn 0.000000 0.394921 -0.918715
vn 0.000000 0.394921 -0.918715
vn 0.000000 0.394921 -0.918715
vn 0.000000 0.394921 -0.918715
vn 0.000000 -1.000000 0.000000
vn 0.000000 -1.000000 0.000000
vn 0.000000 -1.000000 0.000000
vn 0.000000 -1.000000 0.000000
vn 0.000000 0.394921 0.918715
vn 0.000000 0.394921 0.918715
vn 0.000000 0.394921 0.918715
vn 0.000000 0.394921 0.918715
vn 0.000000 -1.000000 0.000000
vn 0.000000 -1.000000 0.000000
vn 0.000000 0.923564 0.383445
vn 0.000000 0.923564 0.383445
vn 0.000000 0.923564 0.383445
vn 0.000000 0.923564 0.383445
vn 0.000000 0.923564 -0.383445
vn 0.000000 0.923564 -0.383445
vn 0.000000 0.923564 -0.383445
vn 0.000000 0.923564 -0.383445
vn 0.000000 0.000000 0.000000
vn 0.000000 0.000000 0.000000
vn 0.000000 0.000000 0.000000
vn 0.000000 0.000000 0.000000
vn 0.000000 0.000000 0.000000
vn 0.000000 0.000000 0.000000
vn 0.000000 0.000000 0.000000
vn 0.000000 0.000000 0.000000
vn 0.000000 0.000000 0.000000
vn 0.000000 0.000000 0.000000
vn 0.000000 0.000000 0.000000
vn 0.000000 0.000000 0.000000
vn 0.000000 0.000000 0.000000
vn 0.000000 0.000000 0.000000
vn 0.000000 0.000000 0.000000
vn 0.000000 0.000000 0.000000
vn 0.000000 0.000000 0.000000
vn 0.000000 0.000000 0.000000
vn 0.000000 0.000000 0.000000
vn 0.000000 0.000000 0.000000
vn 0.000000 0.000000 0.000000
vn 0.000000 0.000000 0.000000
vn 0.000000 0.000000 0.000000
vn 0.000000 0.000000 0.000000
vn 1.000000 -0.000000 0.000000
vn 1.000000 0.000000 0.000000
vn 1.000000 0.000000 0.000000
vn 1.000000 -0.000000 0.000000
vn 1.000000 0.000000 0.000000
vn 1.000000 0.000000 0.000000
vn 1.000000 -0.000000 0.000000
vn 1.000000 -0.000000 0.000000
vn 1.000000 -0.000000 0.000000
vn 1.000000 -0.000000 0.000000
vn 1.000000 -0.000000 0.000000
vn 1.000000 -0.000000 0.000000
vn 0.000000 -0.408009 0.912978
vn 0.000000 -0.408009 0.912978
vn 0.000000 -0.408009 0.912978
vn 0.000000 -0.408009 0.912978
vn 0.000000 1.000000 -0.000000
vn 0.000000 1.000000 -0.000000
vn 0.000000 1.000000 -0.000000
vn 0.000000 1.000000 -0.000000
vn -0.000000 -0.408009 -0.912978
vn -0.000000 -0.408009 -0.912978
vn -0.000000 -0.408009 -0.912978
vn -0.000000 -0.408009 -0.912978
vn 0.000000 1.000000 -0.000000
vn 0.000000 1.000000 -0.000000
vn 0.000000 -0.923706 -0.383102
vn 0.000000 -0.923706 -0.383102
vn 0.000000 -0.923706 -0.383102
vn 0.000000 -0.923706 -0.383102
vn 0.000000 -0.923706 0.383102
vn 0.000000 -0.923706 0.383102
vn 0.000000 -0.923706 0.383102
vn 0.000000 -0.923706 0.383102
s off
g pCylinder1 group1
usemtl initialShadingGroup
f 1/9/1 2/10/2 10/19/3 9/18/4
f 2/10/5 3/11/6 11/20/7 10/19/8
f 3/11/9 4/12/10 12/21/11 11/20/12
f 4/12/13 5/13/14 13/22/15 12/21/16
f 5/13/17 6/14/18 14/23/19 13/22/20
f 6/14/21 7/15/22 15/24/23 14/23/24
f 7/15/25 8/16/26 16/25/27 15/24/28
f 8/16/29 1/17/30 9/26/31 16/25/32
s 1
f 68/85/33 67/86/34 69/87/35
s 2
f 3/3/36 2/2/37 17/35/38
f 4/4/39 3/3/36 17/35/38
f 5/5/40 4/4/39 17/35/38
f 6/6/41 5/5/40 17/35/38
s 1
f 71/88/42 70/89/43 69/87/35
f 72/90/44 71/88/42 69/87/35
f 67/86/34 72/90/44 69/87/35
s 4
f 49/67/45 50/68/46 51/69/47
s 5
f 10/32/48 11/31/49 18/36/50
f 11/31/49 12/30/51 18/36/50
f 12/30/51 13/29/52 18/36/50
f 13/29/52 14/28/53 18/36/50
s 4
f 52/70/54 53/71/55 51/69/47
f 53/71/55 54/72/56 51/69/47
f 54/72/56 49/67/45 51/69/47
s 2
f 2/2/37 1/1/57 19/38/58 20/37/59
f 17/35/38 2/2/37 20/37/59 21/39/60
f 7/7/61 6/6/41 22/41/62 23/40/63
f 6/6/41 17/35/38 21/39/60 22/41/62
f 8/8/64 7/7/61 23/40/63 24/42/65
f 1/1/57 8/8/64 24/42/65 19/38/58
s 5
f 9/33/66 10/32/48 26/44/67 25/43/68
f 10/32/48 18/36/50 27/45/69 26/44/67
f 14/28/53 15/27/70 29/47/71 28/46/72
f 18/36/50 14/28/53 28/46/72 27/45/69
f 15/27/70 16/34/73 30/48/74 29/47/71
f 16/34/73 9/33/66 25/43/68 30/48/74
s off
f 20/37/75 19/38/76 31/50/77 32/49/78
f 21/39/79 20/37/80 32/49/81 33/51/82
f 23/40/83 22/41/84 34/53/85 35/52/86
f 22/41/87 21/39/88 33/51/89 34/53/90
f 24/42/91 23/40/92 35/52/93 36/54/94
f 19/38/95 24/42/96 36/54/97 31/50/98
f 25/43/99 26/44/100 38/56/101 37/55/102
f 26/44/103 27/45/104 39/57/105 38/56/106
f 28/46/107 29/47/108 41/59/109 40/58/110
f 27/45/111 28/46/112 40/58/113 39/57/114
f 29/47/115 30/48/116 42/60/117 41/59/118
f 30/48/119 25/43/120 37/55/121 42/60/122
f 32/49/123 31/50/124 43/62/125 44/61/126
s 9
f 33/51/127 32/49/128 44/61/129 45/63/130
s off
f 35/52/131 34/53/132 46/65/133 47/64/134
s 9
f 34/53/135 33/51/127 45/63/130 46/65/136
s off
f 36/54/137 35/52/138 47/64/139 48/66/140
f 31/50/141 36/54/142 48/66/143 43/62/144
f 37/55/145 38/56/146 50/68/147 49/67/148
s 10
f 38/56/149 39/57/150 51/69/151 50/68/152
s off
f 40/58/153 41/59/154 53/71/155 52/70/156
s 10
f 39/57/150 40/58/157 52/70/158 51/69/151
s off
f 41/59/159 42/60/160 54/72/161 53/71/162
f 42/60/163 37/55/164 49/67/165 54/72/166
f 44/61/167 43/62/168 55/74/169 56/73/170
f 45/63/171 44/61/172 56/73/173 57/75/174
f 47/64/175 46/65/176 58/77/177 59/76/178
f 46/65/179 45/63/180 57/75/181 58/77/182
f 48/66/183 47/64/184 59/76/185 60/78/186
f 43/62/187 48/66/188 60/78/189 55/74/190
s 11
f 56/73/191 55/74/192 61/80/193 62/79/194
f 57/75/195 56/73/191 62/79/194 63/81/196
f 59/76/197 58/77/198 64/83/199 65/82/200
f 58/77/198 57/75/195 63/81/196 64/83/199
f 60/78/201 59/76/197 65/82/200 66/84/202
f 55/74/192 60/78/201 66/84/202 61/80/193
s off
f 62/79/203 61/80/204 67/86/205 68/85/206
s 12
f 63/81/207 62/79/208 68/85/209 69/87/210
s off
f 65/82/211 64/83/212 70/89/213 71/88/214
s 12
f 64/83/215 63/81/207 69/87/210 70/89/216
s off
f 66/84/217 65/82/218 71/88/219 72/90/220
f 61/80/221 66/84/222 72/90/223 67/86/224
g default
v -0.088006 -0.023172 -0.041525
v -0.129531 -0.023172 -0.000000
v -0.088006 -0.023172 0.041525
v -0.046481 -0.023172 0.000000
v -0.088006 0.941759 -0.041525
v -0.129531 0.941759 -0.000000
v -0.088006 0.941759 0.041525
v -0.046481 0.941759 0.000000
v -0.088006 -0.023172 0.000000
v -0.088006 0.941759 0.000000
vt 0.500000 0.000000
vt 0.343750 0.156250
vt 0.500000 0.312500
vt 0.656250 0.156250
vt 0.375000 0.312500
vt 0.437500 0.312500
vt 0.500000 0.312500
vt 0.562500 0.312500
vt 0.625000 0.312500
vt 0.375000 0.687500
vt 0.437500 0.687500
vt 0.500000 0.687500
vt 0.562500 0.687500
vt 0.625000 0.687500
vt 0.500000 0.687500
vt 0.343750 0.843750
vt 0.500000 1.000000
vt 0.656250 0.843750
vt 0.500000 0.156250
vt 0.500000 0.843750
vn -0.707107 0.000000 -0.707107
vn -0.707107 0.000000 -0.707107
vn -0.707107 0.000000 -0.707107
vn -0.707107 0.000000 -0.707107
vn -0.707107 0.000000 0.707107
vn -0.707107 0.000000 0.707107
vn -0.707107 0.000000 0.707107
vn -0.707107 0.000000 0.707107
vn 0.707107 0.000000 0.707107
vn 0.707107 0.000000 0.707107
vn 0.707107 0.000000 0.707107
vn 0.707107 0.000000 0.707107
vn 0.707107 0.000000 -0.707107
vn 0.707107 0.000000 -0.707107
vn 0.707107 0.000000 -0.707107
vn 0.707107 0.000000 -0.707107
vn 0.000000 -1.000000 0.000000
vn 0.000000 -1.000000 0.000000
vn 0.000000 -1.000000 0.000001
vn 0.000000 -1.000000 0.000001
vn 0.000000 -1.000000 0.000001
vn 0.000000 1.000000 -0.000000
vn 0.000000 1.000000 -0.000000
vn 0.000000 1.000000 0.000000
vn 0.000000 1.000000 0.000001
vn 0.000000 1.000000 0.000001
s off
g group1 pCylinder2
usemtl initialShadingGroup
f 73/95/225 74/96/226 78/101/227 77/100/228
f 74/96/229 75/97/230 79/102/231 78/101/232
f 75/97/233 76/98/234 80/103/235 79/102/236
f 76/98/237 73/99/238 77/104/239 80/103/240
s 1
f 74/92/241 73/91/242 81/109/243
f 75/93/244 74/92/241 81/109/243
f 76/94/245 75/93/244 81/109/243
f 73/91/242 76/94/245 81/109/243
s 2
f 77/107/246 78/106/247 82/110/248
f 78/106/247 79/105/249 82/110/248
f 79/105/249 80/108/250 82/110/248
f 80/108/250 77/107/246 82/110/248
g default
v -0.088006 -0.023172 0.258475
v -0.129531 -0.023172 0.300000
v -0.088006 -0.023172 0.341525
v -0.046481 -0.023172 0.300000
v -0.088006 0.808148 0.258475
v -0.129531 0.808148 0.300000
v -0.088006 0.808148 0.341525
v -0.046481 0.808148 0.300000
v -0.088006 -0.023172 0.300000
v -0.088006 0.808148 0.300000
vt 0.500000 0.000000
vt 0.343750 0.156250
vt 0.500000 0.312500
vt 0.656250 0.156250
vt 0.375000 0.312500
vt 0.437500 0.312500
vt 0.500000 0.312500
vt 0.562500 0.312500
vt 0.625000 0.312500
vt 0.375000 0.687500
vt 0.437500 0.687500
vt 0.500000 0.687500
vt 0.562500 0.687500
vt 0.625000 0.687500
vt 0.500000 0.687500
vt 0.343750 0.843750
vt 0.500000 1.000000
vt 0.656250 0.843750
vt 0.500000 0.156250
vt 0.500000 0.843750
vn -0.707107 0.000000 -0.707107
vn -0.707107 0.000000 -0.707107
vn -0.707107 0.000000 -0.707107
vn -0.707107 0.000000 -0.707107
vn -0.707107 0.000000 0.707107
vn -0.707107 0.000000 0.707107
vn -0.707107 0.000000 0.707107
vn -0.707107 0.000000 0.707107
vn 0.707107 0.000000 0.707107
vn 0.707107 0.000000 0.707107
vn 0.707107 0.000000 0.707107
vn 0.707107 0.000000 0.707107
vn 0.707107 0.000000 -0.707107
vn 0.707107 0.000000 -0.707107
vn 0.707107 0.000000 -0.707107
vn 0.707107 0.000000 -0.707107
vn 0.000000 -1.000000 0.000000
vn 0.000000 -1.000000 0.000000
vn 0.000000 -1.000000 0.000001
vn 0.000000 -1.000000 0.000001
vn 0.000000 -1.000000 0.000001
vn 0.000000 1.000000 0.000000
vn 0.000000 1.000000 -0.000000
vn 0.000000 1.000000 0.000000
vn 0.000000 1.000000 0.000000
vn 0.000000 1.000000 0.000001
s off
g group1 pCylinder3
usemtl initialShadingGroup
f 83/115/251 84/116/252 88/121/253 87/120/254
f 84/116/255 85/117/256 89/122/257 88/121/258
f 85/117/259 86/118/260 90/123/261 89/122/262
f 86/118/263 83/119/264 87/124/265 90/123/266
s 1
f 84/112/267 83/111/268 91/129/269
f 85/113/270 84/112/267 91/129/269
f 86/114/271 85/113/270 91/129/269
f 83/111/268 86/114/271 91/129/269
s 2
f 87/127/272 88/126/273 92/130/274
f 88/126/273 89/125/275 92/130/274
f 89/125/275 90/128/276 92/130/274
f 90/128/276 87/127/272 92/130/274
g default
v -0.088006 -0.023172 -0.341525
v -0.129531 -0.023172 -0.300000
v -0.088006 -0.023172 -0.258475
v -0.046481 -0.023172 -0.300000
v -0.088006 0.808148 -0.341525
v -0.129531 0.808148 -0.300000
v -0.088006 0.808148 -0.258475
v -0.046481 0.808148 -0.300000
v -0.088006 -0.023172 -0.300000
v -0.088006 0.808148 -0.300000
vt 0.500000 0.000000
vt 0.343750 0.156250
vt 0.500000 0.312500
vt 0.656250 0.156250
vt 0.375000 0.312500
vt 0.437500 0.312500
vt 0.500000 0.312500
vt 0.562500 0.312500
vt 0.625000 0.312500
vt 0.375000 0.687500
vt 0.437500 0.687500
vt 0.500000 0.687500
vt 0.562500 0.687500
vt 0.625000 0.687500
vt 0.500000 0.687500
vt 0.343750 0.843750
vt 0.500000 1.000000
vt 0.656250 0.843750
vt 0.500000 0.156250
vt 0.500000 0.843750
vn -0.707107 0.000000 -0.707107
vn -0.707107 0.000000 -0.707107
vn -0.707107 0.000000 -0.707107
vn -0.707107 0.000000 -0.707107
vn -0.707107 0.000000 0.707107
vn -0.707107 0.000000 0.707107
vn -0.707107 0.000000 0.707107
vn -0.707107 0.000000 0.707107
vn 0.707107 0.000000 0.707107
vn 0.707107 0.000000 0.707107
vn 0.707107 0.000000 0.707107
vn 0.707107 0.000000 0.707107
vn 0.707107 0.000000 -0.707107
vn 0.707107 0.000000 -0.707107
vn 0.707107 0.000000 -0.707107
vn 0.707107 0.000000 -0.707107
vn 0.000000 -1.000000 0.000000
vn 0.000000 -1.000000 0.000000
vn 0.000000 -1.000000 0.000001
vn 0.000000 -1.000000 0.000001
vn 0.000000 -1.000000 0.000001
vn 0.000000 1.000000 0.000000
vn 0.000000 1.000000 -0.000000
vn 0.000000 1.000000 0.000000
vn 0.000000 1.000000 0.000000
vn 0.000000 1.000000 0.000001
s off
g group1 pCylinder4
usemtl initialShadingGroup
f 93/135/277 94/136/278 98/141/279 97/140/280
f 94/136/281 95/137/282 99/142/283 98/141/284
f 95/137/285 96/138/286 100/143/287 99/142/288
f 96/138/289 93/139/290 97/144/291 100/143/292
s 1
f 94/132/293 93/131/294 101/149/295
f 95/133/296 94/132/293 101/149/295
f 96/134/297 95/133/296 101/149/295
f 93/131/294 96/134/297 101/149/295
s 2
f 97/147/298 98/146/299 102/150/300
f 98/146/299 99/145/301 102/150/300
f 99/145/301 100/148/302 102/150/300
f 100/148/302 97/147/298 102/150/300
g default
v -0.088006 -0.023172 -0.641525
v -0.129531 -0.023172 -0.600000
v -0.088006 -0.023172 -0.558475
v -0.046481 -0.023172 -0.600000
v -0.088006 0.709472 -0.641525
v -0.129531 0.709472 -0.600000
v -0.088006 0.709472 -0.558475
v -0.046481 0.709472 -0.600000
v -0.088006 -0.023172 -0.600000
v -0.088006 0.709472 -0.600000
vt 0.500000 0.000000
vt 0.343750 0.156250
vt 0.500000 0.312500
vt 0.656250 0.156250
vt 0.375000 0.312500
vt 0.437500 0.312500
vt 0.500000 0.312500
vt 0.562500 0.312500
vt 0.625000 0.312500
vt 0.375000 0.687500
vt 0.437500 0.687500
vt 0.500000 0.687500
vt 0.562500 0.687500
vt 0.625000 0.687500
vt 0.500000 0.687500
vt 0.343750 0.843750
vt 0.500000 1.000000
vt 0.656250 0.843750
vt 0.500000 0.156250
vt 0.500000 0.843750
vn -0.707107 0.000000 -0.707107
vn -0.707107 0.000000 -0.707107
vn -0.707107 0.000000 -0.707107
vn -0.707107 0.000000 -0.707107
vn -0.707107 0.000000 0.707107
vn -0.707107 0.000000 0.707107
vn -0.707107 0.000000 0.707107
vn -0.707107 0.000000 0.707107
vn 0.707107 0.000000 0.707107
vn 0.707107 0.000000 0.707107
vn 0.707107 0.000000 0.707107
vn 0.707107 0.000000 0.707107
vn 0.707107 0.000000 -0.707107
vn 0.707107 0.000000 -0.707107
vn 0.707107 0.000000 -0.707107
vn 0.707107 0.000000 -0.707107
vn 0.000000 -1.000000 0.000000
vn 0.000000 -1.000000 0.000000
vn 0.000000 -1.000000 0.000001
vn 0.000000 -1.000000 0.000001
vn 0.000000 -1.000000 0.000001
vn 0.000000 1.000000 -0.000000
vn 0.000000 1.000000 0.000001
vn 0.000000 1.000000 0.000000
vn 0.000000 1.000000 0.000001
vn 0.000000 1.000000 0.000000
s off
g group1 pCylinder5
usemtl initialShadingGroup
f 103/155/303 104/156/304 108/161/305 107/160/306
f 104/156/307 105/157/308 109/162/309 108/161/310
f 105/157/311 106/158/312 110/163/313 109/162/314
f 106/158/315 103/159/316 107/164/317 110/163/318
s 1
f 104/152/319 103/151/320 111/169/321
f 105/153/322 104/152/319 111/169/321
f 106/154/323 105/153/322 111/169/321
f 103/151/320 106/154/323 111/169/321
s 2
f 107/167/324 108/166/325 112/170/326
f 108/166/325 109/165/327 112/170/326
f 109/165/327 110/168/328 112/170/326
f 110/168/328 107/167/324 112/170/326
g default
v -0.088006 -0.023172 0.558475
v -0.129531 -0.023172 0.600000
v -0.088006 -0.023172 0.641525
v -0.046481 -0.023172 0.600000
v -0.088006 0.709472 0.558475
v -0.129531 0.709472 0.600000
v -0.088006 0.709472 0.641525
v -0.046481 0.709472 0.600000
v -0.088006 -0.023172 0.600000
v -0.088006 0.709472 0.600000
vt 0.500000 0.000000
vt 0.343750 0.156250
vt 0.500000 0.312500
vt 0.656250 0.156250
vt 0.375000 0.312500
vt 0.437500 0.312500
vt 0.500000 0.312500
vt 0.562500 0.312500
vt 0.625000 0.312500
vt 0.375000 0.687500
vt 0.437500 0.687500
vt 0.500000 0.687500
vt 0.562500 0.687500
vt 0.625000 0.687500
vt 0.500000 0.687500
vt 0.343750 0.843750
vt 0.500000 1.000000
vt 0.656250 0.843750
vt 0.500000 0.156250
vt 0.500000 0.843750
vn -0.707107 0.000000 -0.707107
vn -0.707107 0.000000 -0.707107
vn -0.707107 0.000000 -0.707107
vn -0.707107 0.000000 -0.707107
vn -0.707107 0.000000 0.707107
vn -0.707107 0.000000 0.707107
vn -0.707107 0.000000 0.707107
vn -0.707107 0.000000 0.707107
vn 0.707107 0.000000 0.707107
vn 0.707107 0.000000 0.707107
vn 0.707107 0.000000 0.707107
vn 0.707107 0.000000 0.707107
vn 0.707107 0.000000 -0.707107
vn 0.707107 0.000000 -0.707107
vn 0.707107 0.000000 -0.707107
vn 0.707107 0.000000 -0.707107
vn 0.000000 -1.000000 0.000000
vn 0.000000 -1.000000 0.000000
vn 0.000000 -1.000000 0.000001
vn 0.000000 -1.000000 0.000001
vn 0.000000 -1.000000 0.000001
vn 0.000000 1.000000 -0.000000
vn 0.000000 1.000000 0.000001
vn 0.000000 1.000000 0.000000
vn 0.000000 1.000000 0.000001
vn 0.000000 1.000000 0.000000
s off
g group1 pCylinder6
usemtl initialShadingGroup
f 113/175/329 114/176/330 118/181/331 117/180/332
f 114/176/333 115/177/334 119/182/335 118/181/336
f 115/177/337 116/178/338 120/183/339 119/182/340
f 116/178/341 113/179/342 117/184/343 120/183/344
s 1
f 114/172/345 113/171/346 121/189/347
f 115/173/348 114/172/345 121/189/347
f 116/174/349 115/173/348 121/189/347
f 113/171/346 116/174/349 121/189/347
s 2
f 117/187/350 118/186/351 122/190/352
f 118/186/351 119/185/353 122/190/352
f 119/185/353 120/188/354 122/190/352
f 120/188/354 117/187/350 122/190/352
