# This file uses centimeters as units for non-parametric coordinates.

mtllib Glass.mtl
g default
v 0.000000 -0.006388 -0.313824
v -0.313824 -0.006388 -0.000000
v -0.000000 -0.006388 0.313824
v 0.313824 -0.006388 0.000000
v 0.000000 0.972196 -0.313824
v -0.313824 0.972196 -0.000000
v -0.000000 0.972196 0.313824
v 0.313824 0.972196 0.000000
v 0.000000 1.159985 -0.130205
v -0.130205 1.159985 0.000000
v -0.000000 1.159985 0.130205
v 0.130205 1.159985 0.000000
v 0.000000 1.568640 -0.130205
v -0.130205 1.568640 -0.000000
v -0.000000 1.568640 0.130205
v 0.130205 1.568640 0.000000
v 0.000000 1.585788 -0.157205
v -0.157205 1.585788 -0.000000
v -0.000000 1.585788 0.157205
v 0.157205 1.585788 0.000000
v 0.000000 1.691163 -0.157205
v -0.157205 1.691163 -0.000000
v -0.000000 1.691163 0.000000
v -0.000000 1.691163 0.157205
v 0.157205 1.691163 0.000000
v 0.000000 -0.006388 -0.261923
v -0.261923 -0.006388 -0.000000
v -0.000000 -0.006388 0.261923
v 0.261923 -0.006388 0.000000
v -0.000000 -0.006388 0.313824
v 0.313824 -0.006388 0.000000
v 0.313824 0.972196 0.000000
v -0.000000 0.972196 0.313824
v 0.000000 -0.006388 -0.261923
v -0.261923 -0.006388 -0.000000
v -0.000000 -0.006388 0.261923
v 0.261923 -0.006388 0.000000
v 0.000000 0.015893 -0.261923
v -0.261923 0.015893 -0.000000
v -0.000000 0.015893 -0.000000
v -0.000000 0.015893 0.261923
v 0.261923 0.015893 -0.000000
vt 0.277314 0.265015
vt 0.304035 0.265015
vt 0.277314 0.425342
vt 0.304035 0.425342
vt 0.741444 0.232296
vt 0.808247 0.165493
vt 0.808247 0.299099
vt 0.875049 0.232296
vt 0.277314 0.265015
vt 0.304035 0.265015
vt 0.304035 0.425342
vt 0.277314 0.425342
vt 0.741444 0.232296
vt 0.808247 0.165493
vt 0.808247 0.299099
vt 0.875049 0.232296
vt 0.660313 0.254607
vt 0.791588 0.123331
vt 0.791588 0.254607
vt 0.922863 0.254607
vt 0.791588 0.385882
vt 0.545033 0.746785
vt 0.466242 0.667994
vt 0.545033 0.667994
vt 0.545033 0.589203
vt 0.623824 0.667994
vt 0.546397 0.603832
vt 0.481138 0.669091
vt 0.467606 0.669091
vt 0.546397 0.590300
vt 0.546397 0.734350
vt 0.546397 0.747882
vt 0.611656 0.669091
vt 0.625188 0.669091
vt 0.635677 0.243662
vt 0.792965 0.086374
vt 0.792965 0.112387
vt 0.661690 0.243662
vt 0.950253 0.243662
vt 0.924240 0.243662
vt 0.792965 0.400950
vt 0.792965 0.374937
vt 0.053485 0.049434
vt 0.210773 0.049434
vt 0.789333 0.498649
vt 0.632045 0.498649
vt 0.368061 0.049434
vt 0.368061 0.539900
vt 0.789333 0.592769
vt 0.724074 0.592769
vt 0.210773 0.049434
vt 0.789333 0.498649
vt 0.854592 0.592769
vt 0.789333 0.797586
vt 0.724074 0.797586
vt 0.789333 0.592769
vt 0.854592 0.797586
vt 0.789333 0.797586
vt 0.375257 0.049434
vt 0.532545 0.049434
vt 0.532545 0.539900
vt 0.375257 0.539900
vt 0.739715 0.592693
vt 0.804973 0.592693
vt 0.804973 0.797510
vt 0.739714 0.797510
vt 0.647685 0.498574
vt 0.804973 0.498574
vt 0.515474 0.755498
vt 0.515474 0.676707
vt 0.568288 0.676708
vt 0.568288 0.755498
vt 0.515474 0.597916
vt 0.568288 0.597916
vt 0.515474 0.676707
vt 0.568288 0.676707
vt 0.508262 0.720405
vt 0.508262 0.641614
vt 0.561076 0.641614
vt 0.561076 0.720405
vt 0.798304 0.237642
vt 0.798304 0.106367
vt 0.809471 0.106367
vt 0.809471 0.237642
vt 0.798304 0.237642
vt 0.809471 0.237642
vt 0.798304 0.368917
vt 0.809471 0.368917
vt 0.777615 0.308956
vt 0.777615 0.177681
vt 0.788782 0.177681
vt 0.788782 0.308956
vt 0.210773 0.539900
vt 0.053485 0.539900
vt 0.210773 0.539900
vt 0.946621 0.498649
vn -0.707107 0.000000 -0.707107
vn -0.707107 0.000000 -0.707107
vn -0.705932 0.057613 -0.705932
vn -0.705932 0.057613 -0.705932
vn -0.707107 0.000000 0.707107
vn -0.707107 0.000000 0.707107
vn -0.705932 0.057613 0.705932
vn -0.705932 0.057613 0.705932
vn 0.707107 0.000000 0.707107
vn 0.707107 0.000000 0.707107
vn 0.707107 0.000000 0.707107
vn 0.707107 0.000000 0.707107
vn 0.707107 0.000000 -0.707107
vn 0.707107 0.000000 -0.707107
vn 0.705932 0.057613 -0.705932
vn 0.705932 0.057613 -0.705932
vn 0.000000 -1.000000 -0.000000
vn -0.000000 -1.000000 0.000000
vn 0.000000 -1.000000 -0.000000
vn 0.000000 -1.000000 -0.000000
vn -0.000000 -1.000000 0.000000
vn 0.000000 1.000000 -0.000000
vn 0.000000 1.000000 -0.000001
vn 0.000000 1.000000 -0.000000
vn 0.000000 1.000000 -0.000000
vn 0.000000 1.000000 0.000000
vn -0.581624 0.568707 -0.581624
vn -0.581624 0.568707 -0.581624
vn -0.581624 0.568707 0.581624
vn -0.581624 0.568707 0.581624
vn 0.581624 0.568707 0.581624
vn 0.581624 0.568707 0.581624
vn 0.581624 0.568707 0.581624
vn 0.581624 0.568707 0.581624
vn 0.581624 0.568707 -0.581624
vn 0.581624 0.568707 -0.581624
vn -0.707107 -0.000000 -0.707107
vn -0.707107 -0.000000 -0.707107
vn -0.705472 -0.067962 -0.705472
vn -0.705472 -0.067963 -0.705472
vn -0.707107 -0.000000 0.707106
vn -0.707107 -0.000000 0.707106
vn -0.705472 -0.067962 0.705471
vn -0.705472 -0.067962 0.705471
vn 0.707107 -0.000000 0.707107
vn 0.707107 -0.000000 0.707107
vn 0.705472 -0.067962 0.705472
vn 0.705472 -0.067962 0.705472
vn 0.707107 0.000000 -0.707106
vn 0.707107 0.000000 -0.707106
vn 0.705472 -0.067962 -0.705471
vn 0.705472 -0.067962 -0.705471
vn -0.704246 -0.089860 -0.704246
vn -0.704246 -0.089860 -0.704246
vn -0.704247 -0.089859 0.704245
vn -0.704247 -0.089859 0.704245
vn 0.704246 -0.089859 0.704246
vn 0.704246 -0.089859 0.704246
vn 0.704248 -0.089859 -0.704245
vn 0.704248 -0.089859 -0.704245
vn -0.707107 -0.000000 -0.707107
vn -0.707107 -0.000000 -0.707107
vn -0.707108 0.000000 0.707106
vn -0.707108 0.000000 0.707106
vn 0.707107 -0.000000 0.707107
vn 0.707107 -0.000000 0.707107
vn 0.707108 0.000000 -0.707105
vn 0.707108 0.000000 -0.707105
vn 0.000000 -1.000000 -0.000000
vn 0.000000 -1.000000 -0.000000
vn 0.000000 -1.000000 -0.000000
vn 0.000000 -1.000000 -0.000000
vn 0.000000 -1.000000 -0.000000
vn 0.000000 -1.000000 -0.000000
vn 0.000000 -1.000000 -0.000000
vn 0.000000 -1.000000 -0.000000
vn 0.000000 0.000000 0.000000
vn 0.000000 0.000000 0.000000
vn 0.000000 0.000000 0.000000
vn 0.000000 0.000000 0.000000
vn 0.000000 0.000000 0.000000
vn 0.000000 0.000000 0.000000
vn 0.000000 0.000000 0.000000
vn 0.000000 0.000000 0.000000
vn 0.000000 0.000000 0.000000
vn 0.000000 0.000000 0.000000
vn 0.000000 0.000000 0.000000
vn 0.000000 0.000000 0.000000
vn 0.000000 0.000000 0.000000
vn 0.000000 0.000000 0.000000
vn 0.000000 0.000000 0.000000
vn 0.000000 0.000000 0.000000
vn 0.000000 0.000000 0.000000
vn 0.000000 0.000000 0.000000
vn 0.000000 0.000000 0.000000
vn 0.000000 0.000000 0.000000
vn 0.000000 0.000000 0.000000
vn 0.000000 0.000000 0.000000
vn 0.000000 0.000000 0.000000
vn 0.000000 0.000000 0.000000
vn 0.000000 0.000000 0.000000
vn 0.000000 0.000000 0.000000
vn 0.000000 0.000000 0.000000
vn 0.000000 0.000000 0.000000
vn 0.000000 0.000000 0.000000
vn 0.000000 0.000000 0.000000
vn 0.000000 0.000000 0.000000
vn 0.000000 0.000000 0.000000
vn 0.707107 0.000000 0.707107
vn 0.707107 0.000000 0.707107
vn 0.707107 0.000000 0.707107
vn 0.707107 0.000000 0.707107
vn 0.707107 0.000000 -0.707106
vn 0.707107 0.000000 -0.707106
vn 0.707107 0.000000 -0.707106
vn 0.707107 0.000000 -0.707106
vn -0.707107 -0.000000 -0.707106
vn -0.707107 -0.000000 -0.707106
vn -0.707107 -0.000000 -0.707106
vn -0.707107 -0.000000 -0.707106
vn -0.707107 0.000000 0.707107
vn -0.707107 0.000000 0.707107
vn -0.707107 0.000000 0.707107
vn -0.707107 0.000000 0.707107
s 1
g pCylinder1
usemtl lambert2SG
f 1/43/1 2/44/2 6/95/3 5/94/4
s 2
f 2/44/5 3/47/6 7/48/7 6/95/8
s off
f 30/59/9 31/60/10 32/61/11 33/62/12
s 3
f 4/51/13 1/43/14 5/94/15 8/93/16
s 4
f 39/17/17 38/18/18 40/19/19
f 41/21/20 39/17/17 40/19/19
f 42/20/21 41/21/20 40/19/19
f 38/18/18 42/20/21 40/19/19
s 5
f 21/22/22 22/23/23 23/24/24
f 22/23/23 24/25/25 23/24/24
f 24/25/25 25/26/26 23/24/24
f 25/26/26 21/22/22 23/24/24
s 1
f 5/46/4 6/45/3 10/49/27 9/50/28
s 2
f 6/45/8 7/96/7 11/53/29 10/49/30
s off
f 7/67/31 8/68/32 12/64/33 11/63/34
s 3
f 8/52/16 5/46/15 9/50/35 12/56/36
s 6
f 9/50/37 10/49/38 14/54/39 13/55/40
s 7
f 10/49/41 11/53/42 15/57/43 14/54/44
s 8
f 11/63/45 12/64/46 16/65/47 15/66/48
s 9
f 12/56/49 9/50/50 13/55/51 16/58/52
s 6
f 13/27/40 14/28/39 18/29/53 17/30/54
s 7
f 14/28/44 15/31/43 19/32/55 18/29/56
s 8
f 15/31/48 16/33/47 20/34/57 19/32/58
s 9
f 16/33/52 13/27/51 17/30/59 20/34/60
s 6
f 17/69/54 18/70/53 22/71/61 21/72/62
s 7
f 18/70/56 19/73/55 24/74/63 22/71/64
s 8
f 19/77/58 20/78/57 25/79/65 24/80/66
s 9
f 20/75/60 17/69/59 21/72/67 25/76/68
s 10
f 2/35/69 1/36/70 26/37/71 27/38/72
f 3/41/73 2/35/69 27/38/72 28/42/74
f 4/39/75 3/41/73 28/42/74 29/40/76
f 1/36/70 4/39/75 29/40/76 26/37/71
s off
f 3/1/77 4/2/78 31/10/79 30/9/80
f 4/2/81 8/4/82 32/11/83 31/10/84
f 8/4/85 7/3/86 33/12/87 32/11/88
f 7/3/89 3/1/90 30/9/91 33/12/92
f 27/5/93 26/6/94 34/14/95 35/13/96
f 28/7/97 27/5/98 35/13/99 36/15/100
f 29/8/101 28/7/102 36/15/103 37/16/104
f 26/6/105 29/8/106 37/16/107 34/14/108
f 35/81/109 34/82/110 38/83/111 39/84/112
f 36/87/113 35/81/114 39/84/115 41/88/116
f 37/89/117 36/90/118 41/91/119 42/92/120
f 34/82/121 37/85/122 42/86/123 38/83/124
