# This file uses centimeters as units for non-parametric coordinates.

mtllib Picture.mtl
g default
v -2.372260 0.018351 0.045566
v -1.622730 0.018351 0.045566
v -2.372260 0.880400 0.045566
v -1.622730 0.880400 0.045566
v -2.372260 0.880400 -0.045566
v -1.622730 0.880400 -0.045566
v -2.372260 0.018351 -0.045566
v -1.622730 0.018351 -0.045566
v -2.347276 0.047086 0.045566
v -1.647714 0.047086 0.045566
v -1.647714 0.851664 0.045566
v -2.347276 0.851664 0.045566
v -2.347276 0.047086 0.030949
v -1.647714 0.047086 0.030949
v -1.647714 0.851664 0.030949
v -2.347276 0.851664 0.030949
v -2.329787 0.067200 0.030949
v -1.665203 0.067200 0.030949
v -1.665203 0.831550 0.030949
v -2.329787 0.831550 0.030949
v -2.329787 0.067200 0.011389
v -1.665203 0.067200 0.011389
v -1.665203 0.831550 0.011389
v -2.329787 0.831550 0.011389
vt 0.139196 0.124803
vt 0.389196 0.124803
vt 0.139196 0.374803
vt 0.389196 0.374803
vt 0.139196 0.124140
vt 0.389196 0.124140
vt 0.139196 0.122455
vt 0.389196 0.122455
vt 0.139196 0.372455
vt 0.389196 0.372455
vt 0.398336 0.127509
vt 0.398336 0.377509
vt 0.146293 0.124803
vt 0.146293 0.374803
vt 0.139196 0.124803
vt 0.389196 0.124803
vt 0.389196 0.374803
vt 0.139196 0.374803
vt 0.139196 0.124803
vt 0.389196 0.124803
vt 0.389196 0.374803
vt 0.139196 0.374803
vt 0.139196 0.124803
vt 0.389196 0.124803
vt 0.389196 0.374803
vt 0.139196 0.374803
vt 0.067392 0.443352
vt 0.389196 0.124803
vt 0.389196 0.374803
vt 0.139196 0.374803
vt 0.396293 0.124803
vt 0.396293 0.374803
vt 0.148336 0.127509
vt 0.389196 0.131237
vt 0.148336 0.377509
vt 0.139196 0.131237
vt 0.139196 0.124803
vt 0.067392 0.926768
vt 0.479094 0.926768
vt 0.479094 0.443352
vn 0.000000 0.000000 1.000000
vn 0.000000 0.000000 1.000000
vn 0.000000 0.000000 1.000000
vn 0.000000 0.000000 1.000000
vn 0.000000 1.000000 0.000000
vn 0.000000 1.000000 0.000000
vn 0.000000 1.000000 0.000000
vn 0.000000 1.000000 0.000000
vn 0.000000 0.000000 -1.000000
vn 0.000000 0.000000 -1.000000
vn 0.000000 0.000000 -1.000000
vn 0.000000 0.000000 -1.000000
vn 0.000000 -1.000000 0.000000
vn 0.000000 -1.000000 0.000000
vn 0.000000 -1.000000 0.000000
vn 0.000000 -1.000000 0.000000
vn 1.000000 0.000000 0.000000
vn 1.000000 0.000000 0.000000
vn 1.000000 0.000000 0.000000
vn 1.000000 0.000000 0.000000
vn -1.000000 0.000000 0.000000
vn -1.000000 0.000000 0.000000
vn -1.000000 0.000000 0.000000
vn -1.000000 0.000000 0.000000
vn -0.000000 0.000000 1.000000
vn -0.000000 0.000000 1.000000
vn -0.000000 0.000000 1.000000
vn -0.000000 0.000000 1.000000
vn -0.000000 0.000000 1.000000
vn -0.000000 0.000000 1.000000
vn -0.000000 0.000000 1.000000
vn -0.000000 0.000000 1.000000
vn 0.000000 1.000000 0.000000
vn 0.000000 1.000000 0.000000
vn 0.000000 1.000000 0.000000
vn 0.000000 1.000000 0.000000
vn -1.000000 0.000000 0.000000
vn -1.000000 0.000000 0.000000
vn -1.000000 0.000000 0.000000
vn -1.000000 0.000000 0.000000
vn 0.000000 -1.000000 0.000000
vn 0.000000 -1.000000 0.000000
vn 0.000000 -1.000000 0.000000
vn 0.000000 -1.000000 0.000000
vn 1.000000 0.000000 0.000000
vn 1.000000 0.000000 0.000000
vn 1.000000 0.000000 0.000000
vn 1.000000 0.000000 0.000000
vn 0.000000 0.000000 1.000000
vn -0.000000 0.000000 1.000000
vn -0.000000 0.000000 1.000000
vn 0.000000 0.000000 1.000000
vn -0.000000 0.000000 1.000000
vn -0.000000 0.000000 1.000000
vn 0.000000 0.000000 1.000000
vn 0.000000 0.000000 1.000000
vn 0.000000 1.000000 -0.000000
vn 0.000000 1.000000 -0.000000
vn 0.000000 1.000000 -0.000000
vn 0.000000 1.000000 -0.000000
vn -1.000000 0.000000 0.000002
vn -1.000000 0.000000 0.000002
vn -1.000000 0.000000 0.000002
vn -1.000000 0.000000 0.000002
vn 0.000000 -1.000000 0.000000
vn 0.000000 -1.000000 0.000000
vn 0.000000 -1.000000 0.000000
vn 0.000000 -1.000000 0.000000
vn 1.000000 0.000000 -0.000002
vn 1.000000 0.000000 -0.000002
vn 1.000000 0.000000 -0.000002
vn 1.000000 0.000000 -0.000002
s off
g pCube1
usemtl lambert2SG
f 21/27/1 22/40/2 23/39/3 24/38/4
f 3/36/5 4/34/6 6/6/7 5/5/8
f 5/5/9 6/6/10 8/8/11 7/7/12
f 7/7/13 8/8/14 2/10/15 1/9/16
f 2/33/17 8/11/18 6/12/19 4/35/20
f 7/13/21 1/31/22 3/32/23 5/14/24
s 1
f 1/1/25 2/2/26 10/16/27 9/15/28
f 2/2/26 4/4/29 11/17/30 10/16/27
f 4/4/29 3/3/31 12/18/32 11/17/30
f 3/3/31 1/1/25 9/15/28 12/18/32
s off
f 9/15/33 10/16/34 14/20/35 13/19/36
f 10/16/37 11/17/38 15/21/39 14/20/40
f 11/17/41 12/18/42 16/22/43 15/21/44
f 12/18/45 9/15/46 13/19/47 16/22/48
s 2
f 13/19/49 14/20/50 18/24/51 17/23/52
f 14/20/50 15/21/53 19/25/54 18/24/51
f 15/21/53 16/22/55 20/26/56 19/25/54
f 16/22/55 13/19/49 17/23/52 20/26/56
s off
f 17/23/57 18/24/58 22/28/59 21/37/60
f 18/24/61 19/25/62 23/29/63 22/28/64
f 19/25/65 20/26/66 24/30/67 23/29/68
usemtl initialShadingGroup
f 20/26/69 17/23/70 21/37/71 24/30/72
g default
v -2.574712 0.862342 -0.043510
v -2.909217 1.022651 -0.043510
v -3.243721 0.862342 -0.043510
v -3.382278 0.475324 -0.043510
v -3.243721 0.088305 -0.043510
v -2.909217 -0.072003 -0.043510
v -2.574712 0.088305 -0.043510
v -2.436155 0.475324 -0.043510
v -2.574712 0.862342 0.043510
v -2.909217 1.022651 0.043510
v -3.243721 0.862342 0.043510
v -3.382278 0.475324 0.043510
v -3.243721 0.088305 0.043510
v -2.909217 -0.072003 0.043510
v -2.574712 0.088305 0.043510
v -2.436155 0.475324 0.043510
v -2.909217 0.475324 -0.043510
v -2.605250 0.827250 0.043510
v -2.909217 0.972223 0.043510
v -3.213183 0.827250 0.043510
v -3.339746 0.475324 0.043510
v -3.213183 0.123398 0.043510
v -2.909217 -0.021575 0.043510
v -2.605250 0.123398 0.043510
v -2.478687 0.475324 0.043510
v -2.605250 0.827250 0.017863
v -2.909217 0.972223 0.017863
v -3.213183 0.827250 0.017863
v -3.339746 0.475324 0.017863
v -3.213183 0.123398 0.017863
v -2.909217 -0.021575 0.017863
v -2.605250 0.123398 0.017863
v -2.478687 0.475324 0.017863
v -2.623733 0.805954 0.017863
v -2.909217 0.941720 0.017863
v -3.194700 0.805954 0.017863
v -3.313923 0.475324 0.017863
v -3.194700 0.144694 0.017863
v -2.909217 0.008928 0.017863
v -2.623733 0.144694 0.017863
v -2.504510 0.475324 0.017863
v -2.623733 0.805954 0.003126
v -2.909217 0.941720 0.003126
v -2.909217 0.475324 0.003126
v -3.194700 0.805954 0.003126
v -3.313923 0.475324 0.003126
v -3.194700 0.144694 0.003126
v -2.909217 0.008928 0.003126
v -2.623733 0.144694 0.003126
v -2.504510 0.475324 0.003126
vt 0.850117 0.104306
vt 0.751135 0.063306
vt 0.652154 0.104306
vt 0.611154 0.203287
vt 0.652154 0.302269
vt 0.751135 0.343268
vt 0.850117 0.302269
vt 0.891116 0.203287
vt 0.639150 0.094406
vt 0.667147 0.094406
vt 0.695143 0.094406
vt 0.723139 0.094406
vt 0.751135 0.094406
vt 0.779131 0.094406
vt 0.807128 0.094406
vt 0.835124 0.094406
vt 0.863120 0.094406
vt 0.639150 0.430361
vt 0.667147 0.430361
vt 0.695143 0.430361
vt 0.723139 0.430361
vt 0.751135 0.430361
vt 0.779131 0.430361
vt 0.807128 0.430361
vt 0.835124 0.430361
vt 0.863120 0.430361
vt 0.850117 0.108613
vt 0.751135 0.067613
vt 0.652154 0.108613
vt 0.611154 0.207594
vt 0.652154 0.306576
vt 0.751135 0.347575
vt 0.850117 0.306576
vt 0.891116 0.207594
vt 0.751135 0.203287
vt 0.748957 0.691994
vt 0.850117 0.306576
vt 0.751135 0.347575
vt 0.652154 0.306576
vt 0.611154 0.207594
vt 0.652154 0.108613
vt 0.751135 0.067613
vt 0.850117 0.108613
vt 0.891116 0.207594
vt 0.850117 0.306576
vt 0.751135 0.347575
vt 0.652154 0.306576
vt 0.611154 0.207594
vt 0.652154 0.108613
vt 0.751135 0.067613
vt 0.850117 0.108613
vt 0.891116 0.207594
vt 0.850117 0.306576
vt 0.751135 0.347575
vt 0.652154 0.306576
vt 0.611154 0.207594
vt 0.652154 0.108613
vt 0.751135 0.067613
vt 0.850117 0.108613
vt 0.891116 0.207594
vt 0.894349 0.864300
vt 0.751135 0.347575
vt 0.652154 0.306576
vt 0.611154 0.207594
vt 0.652154 0.108613
vt 0.751135 0.067613
vt 0.850117 0.108613
vt 0.891116 0.207594
vt 0.954573 0.691994
vt 0.850117 0.306576
vt 0.894349 0.519689
vt 0.748957 0.448318
vt 0.603564 0.519689
vt 0.543341 0.691994
vt 0.603564 0.864300
vt 0.748957 0.935671
vn 0.432174 0.901790 0.000000
vn 0.432174 0.901790 0.000000
vn 0.432174 0.901790 0.000000
vn 0.432174 0.901790 0.000000
vn -0.432174 0.901790 0.000000
vn -0.432174 0.901790 0.000000
vn -0.432174 0.901790 0.000000
vn -0.432174 0.901790 0.000000
vn -0.941483 0.337060 0.000000
vn -0.941483 0.337060 0.000000
vn -0.941483 0.337060 0.000000
vn -0.941483 0.337060 0.000000
vn -0.941483 -0.337060 0.000000
vn -0.941483 -0.337060 0.000000
vn -0.941483 -0.337060 0.000000
vn -0.941483 -0.337060 0.000000
vn -0.432175 -0.901790 0.000000
vn -0.432175 -0.901790 0.000000
vn -0.432175 -0.901790 0.000000
vn -0.432175 -0.901790 0.000000
vn 0.432174 -0.901790 0.000000
vn 0.432174 -0.901790 0.000000
vn 0.432174 -0.901790 0.000000
vn 0.432174 -0.901790 0.000000
vn 0.941483 -0.337060 0.000000
vn 0.941483 -0.337060 0.000000
vn 0.941483 -0.337060 0.000000
vn 0.941483 -0.337060 0.000000
vn 0.941483 0.337060 0.000000
vn 0.941483 0.337060 0.000000
vn 0.941483 0.337060 0.000000
vn 0.941483 0.337060 0.000000
vn 0.000000 -0.000000 -1.000000
vn 0.000000 -0.000000 -1.000000
vn 0.000000 -0.000000 -1.000000
vn 0.000000 -0.000000 -1.000000
vn 0.000000 -0.000000 -1.000000
vn 0.000000 -0.000000 -1.000000
vn 0.000000 -0.000000 -1.000000
vn 0.000000 -0.000000 -1.000000
vn 0.000000 -0.000000 -1.000000
vn 0.000000 0.000000 1.000000
vn 0.000000 0.000000 1.000000
vn -0.000000 0.000000 1.000000
vn -0.000000 0.000000 1.000000
vn -0.000000 0.000000 1.000000
vn -0.000000 -0.000000 1.000000
vn -0.000000 -0.000000 1.000000
vn 0.000000 -0.000000 1.000000
vn 0.000000 0.000000 1.000000
vn 0.000000 0.000000 1.000000
vn 0.000000 0.000000 1.000000
vn 0.000000 0.000000 1.000000
vn 0.000000 0.000000 1.000000
vn 0.000000 0.000000 1.000000
vn 0.000000 0.000000 1.000000
vn 0.000000 0.000000 1.000000
vn 0.000000 0.000000 1.000000
vn 0.000000 0.000000 1.000000
vn 0.000000 0.000000 1.000000
vn 0.000000 0.000000 1.000000
vn 0.000000 0.000000 1.000000
vn 0.000000 0.000000 1.000000
vn 0.000000 0.000000 1.000000
vn 0.000000 0.000000 1.000000
vn 0.000000 0.000000 1.000000
vn -0.430484 -0.902598 0.000000
vn -0.430484 -0.902598 0.000000
vn -0.430484 -0.902598 0.000000
vn -0.430484 -0.902598 0.000000
vn 0.430484 -0.902598 0.000000
vn 0.430484 -0.902598 0.000000
vn 0.430484 -0.902598 0.000000
vn 0.430484 -0.902598 0.000000
vn 0.940999 -0.338409 0.000000
vn 0.940999 -0.338409 0.000000
vn 0.940999 -0.338409 0.000000
vn 0.940999 -0.338409 0.000000
vn 0.940999 0.338409 0.000000
vn 0.940999 0.338409 0.000000
vn 0.940999 0.338409 0.000000
vn 0.940999 0.338409 0.000000
vn 0.430484 0.902598 0.000000
vn 0.430484 0.902598 0.000000
vn 0.430484 0.902598 0.000000
vn 0.430484 0.902598 0.000000
vn -0.430484 0.902598 0.000000
vn -0.430484 0.902598 0.000000
vn -0.430484 0.902598 0.000000
vn -0.430484 0.902598 0.000000
vn -0.940999 0.338410 0.000000
vn -0.940999 0.338410 0.000000
vn -0.940999 0.338410 0.000000
vn -0.940999 0.338410 0.000000
vn -0.940999 -0.338410 0.000000
vn -0.940999 -0.338410 0.000000
vn -0.940999 -0.338410 0.000000
vn -0.940999 -0.338410 0.000000
vn 0.000000 -0.000000 1.000000
vn 0.000000 -0.000000 1.000000
vn 0.000000 -0.000000 1.000000
vn 0.000000 -0.000000 1.000000
vn 0.000000 -0.000000 1.000000
vn 0.000000 -0.000000 1.000000
vn 0.000000 -0.000000 1.000000
vn 0.000000 -0.000000 1.000000
vn 0.000000 0.000000 1.000000
vn 0.000000 0.000000 1.000000
vn 0.000000 0.000000 1.000000
vn 0.000000 0.000000 1.000000
vn 0.000000 0.000000 1.000000
vn 0.000000 0.000000 1.000000
vn 0.000000 0.000000 1.000000
vn 0.000000 0.000000 1.000000
vn -0.429473 -0.903080 0.000000
vn -0.429473 -0.903080 0.000000
vn -0.429473 -0.903080 0.000000
vn -0.429473 -0.903080 0.000000
vn 0.429473 -0.903080 0.000000
vn 0.429473 -0.903080 0.000000
vn 0.429473 -0.903080 0.000000
vn 0.429473 -0.903080 0.000000
vn 0.940710 -0.339212 0.000000
vn 0.940710 -0.339212 0.000000
vn 0.940710 -0.339212 0.000000
vn 0.940710 -0.339212 0.000000
vn 0.940710 0.339212 0.000000
vn 0.940710 0.339212 0.000000
vn 0.940710 0.339212 0.000000
vn 0.940710 0.339212 0.000000
vn 0.429473 0.903080 0.000000
vn 0.429473 0.903080 0.000000
vn 0.429473 0.903080 0.000000
vn 0.429473 0.903080 0.000000
vn -0.429473 0.903080 0.000000
vn -0.429473 0.903080 0.000000
vn -0.429473 0.903080 0.000000
vn -0.429473 0.903080 0.000000
vn -0.940710 0.339212 0.000000
vn -0.940710 0.339212 0.000000
vn -0.940710 0.339212 0.000000
vn -0.940710 0.339212 0.000000
vn -0.940710 -0.339212 0.000000
vn -0.940710 -0.339212 0.000000
vn -0.940710 -0.339212 0.000000
vn -0.940710 -0.339212 0.000000
s off
g pCylinder1
usemtl lambert2SG
f 25/49/73 26/50/74 34/59/75 33/58/76
f 26/50/77 27/51/78 35/60/79 34/59/80
f 27/51/81 28/52/82 36/61/83 35/60/84
f 28/52/85 29/53/86 37/62/87 36/61/88
f 29/53/89 30/54/90 38/63/91 37/62/92
f 30/54/93 31/55/94 39/64/95 38/63/96
f 31/55/97 32/56/98 40/65/99 39/64/100
f 32/56/101 25/57/102 33/66/103 40/65/104
s 1
f 26/42/105 25/41/106 41/75/107
f 27/43/108 26/42/105 41/75/107
f 28/44/109 27/43/108 41/75/107
f 29/45/110 28/44/109 41/75/107
f 30/46/111 29/45/110 41/75/107
f 31/47/112 30/46/111 41/75/107
f 32/48/113 31/47/112 41/75/107
f 25/41/106 32/48/113 41/75/107
s 2
f 66/101/114 67/116/115 68/76/116
f 67/116/115 69/115/117 68/76/116
f 69/115/117 70/114/118 68/76/116
f 70/114/118 71/113/119 68/76/116
f 71/113/119 72/112/120 68/76/116
f 72/112/120 73/111/121 68/76/116
f 73/111/121 74/109/122 68/76/116
f 74/109/122 66/101/114 68/76/116
s 3
f 33/73/123 34/72/124 43/78/125 42/77/126
f 34/72/124 35/71/127 44/79/128 43/78/125
f 35/71/127 36/70/129 45/80/130 44/79/128
f 36/70/129 37/69/131 46/81/132 45/80/130
f 37/69/131 38/68/133 47/82/134 46/81/132
f 38/68/133 39/67/135 48/83/136 47/82/134
f 39/67/135 40/74/137 49/84/138 48/83/136
f 40/74/137 33/73/123 42/77/126 49/84/138
s off
f 42/77/139 43/78/140 51/86/141 50/85/142
f 43/78/143 44/79/144 52/87/145 51/86/146
f 44/79/147 45/80/148 53/88/149 52/87/150
f 45/80/151 46/81/152 54/89/153 53/88/154
f 46/81/155 47/82/156 55/90/157 54/89/158
f 47/82/159 48/83/160 56/91/161 55/90/162
f 48/83/163 49/84/164 57/92/165 56/91/166
f 49/84/167 42/77/168 50/85/169 57/92/170
s 4
f 50/85/171 51/86/172 59/94/173 58/93/174
f 51/86/172 52/87/175 60/95/176 59/94/173
f 52/87/175 53/88/177 61/96/178 60/95/176
f 53/88/177 54/89/179 62/97/180 61/96/178
f 54/89/179 55/90/181 63/98/182 62/97/180
f 55/90/181 56/91/183 64/99/184 63/98/182
f 56/91/183 57/92/185 65/100/186 64/99/184
f 57/92/185 50/85/171 58/93/174 65/100/186
s off
f 58/93/187 59/94/188 67/102/189 66/110/190
f 59/94/191 60/95/192 69/103/193 67/102/194
f 60/95/195 61/96/196 70/104/197 69/103/198
f 61/96/199 62/97/200 71/105/201 70/104/202
f 62/97/203 63/98/204 72/106/205 71/105/206
f 63/98/207 64/99/208 73/107/209 72/106/210
f 64/99/211 65/100/212 74/108/213 73/107/214
f 65/100/215 58/93/216 66/110/217 74/108/218
