# This file uses centimeters as units for non-parametric coordinates.

mtllib Picture_02.mtl
g default
v -2.372260 0.018351 0.045566
v -1.622730 0.018351 0.045566
v -2.372260 0.880400 0.045566
v -1.622730 0.880400 0.045566
v -2.372260 0.880400 -0.045566
v -1.622730 0.880400 -0.045566
v -2.372260 0.018351 -0.045566
v -1.622730 0.018351 -0.045566
v -2.347276 0.047086 0.045566
v -1.647714 0.047086 0.045566
v -1.647714 0.851664 0.045566
v -2.347276 0.851664 0.045566
v -2.347276 0.047086 0.030949
v -1.647714 0.047086 0.030949
v -1.647714 0.851664 0.030949
v -2.347276 0.851664 0.030949
v -2.329787 0.067200 0.030949
v -1.665203 0.067200 0.030949
v -1.665203 0.831550 0.030949
v -2.329787 0.831550 0.030949
v -2.329787 0.067200 0.011389
v -1.665203 0.067200 0.011389
v -1.665203 0.831550 0.011389
v -2.329787 0.831550 0.011389
vt 0.139196 0.124803
vt 0.389196 0.124803
vt 0.139196 0.374803
vt 0.389196 0.374803
vt 0.139196 0.124140
vt 0.389196 0.124140
vt 0.139196 0.122455
vt 0.389196 0.122455
vt 0.139196 0.372455
vt 0.389196 0.372455
vt 0.398336 0.127509
vt 0.398336 0.377509
vt 0.146293 0.124803
vt 0.146293 0.374803
vt 0.139196 0.124803
vt 0.389196 0.124803
vt 0.389196 0.374803
vt 0.139196 0.374803
vt 0.139196 0.124803
vt 0.389196 0.124803
vt 0.389196 0.374803
vt 0.139196 0.374803
vt 0.139196 0.124803
vt 0.389196 0.124803
vt 0.389196 0.374803
vt 0.139196 0.374803
vt 0.067392 0.443352
vt 0.389196 0.124803
vt 0.389196 0.374803
vt 0.139196 0.374803
vt 0.396293 0.124803
vt 0.396293 0.374803
vt 0.148336 0.127509
vt 0.389196 0.131237
vt 0.148336 0.377509
vt 0.139196 0.131237
vt 0.139196 0.124803
vt 0.067392 0.926768
vt 0.479094 0.926768
vt 0.479094 0.443352
vn 0.000000 0.000000 1.000000
vn 0.000000 0.000000 1.000000
vn 0.000000 0.000000 1.000000
vn 0.000000 0.000000 1.000000
vn 0.000000 1.000000 0.000000
vn 0.000000 1.000000 0.000000
vn 0.000000 1.000000 0.000000
vn 0.000000 1.000000 0.000000
vn 0.000000 0.000000 -1.000000
vn 0.000000 0.000000 -1.000000
vn 0.000000 0.000000 -1.000000
vn 0.000000 0.000000 -1.000000
vn 0.000000 -1.000000 0.000000
vn 0.000000 -1.000000 0.000000
vn 0.000000 -1.000000 0.000000
vn 0.000000 -1.000000 0.000000
vn 1.000000 0.000000 0.000000
vn 1.000000 0.000000 0.000000
vn 1.000000 0.000000 0.000000
vn 1.000000 0.000000 0.000000
vn -1.000000 0.000000 0.000000
vn -1.000000 0.000000 0.000000
vn -1.000000 0.000000 0.000000
vn -1.000000 0.000000 0.000000
vn -0.000000 0.000000 1.000000
vn -0.000000 0.000000 1.000000
vn -0.000000 0.000000 1.000000
vn -0.000000 0.000000 1.000000
vn -0.000000 0.000000 1.000000
vn -0.000000 0.000000 1.000000
vn -0.000000 0.000000 1.000000
vn -0.000000 0.000000 1.000000
vn 0.000000 1.000000 0.000000
vn 0.000000 1.000000 0.000000
vn 0.000000 1.000000 0.000000
vn 0.000000 1.000000 0.000000
vn -1.000000 0.000000 0.000000
vn -1.000000 0.000000 0.000000
vn -1.000000 0.000000 0.000000
vn -1.000000 0.000000 0.000000
vn 0.000000 -1.000000 0.000000
vn 0.000000 -1.000000 0.000000
vn 0.000000 -1.000000 0.000000
vn 0.000000 -1.000000 0.000000
vn 1.000000 0.000000 0.000000
vn 1.000000 0.000000 0.000000
vn 1.000000 0.000000 0.000000
vn 1.000000 0.000000 0.000000
vn 0.000000 0.000000 1.000000
vn -0.000000 0.000000 1.000000
vn -0.000000 0.000000 1.000000
vn 0.000000 0.000000 1.000000
vn -0.000000 0.000000 1.000000
vn -0.000000 0.000000 1.000000
vn 0.000000 0.000000 1.000000
vn 0.000000 0.000000 1.000000
vn 0.000000 1.000000 -0.000000
vn 0.000000 1.000000 -0.000000
vn 0.000000 1.000000 -0.000000
vn 0.000000 1.000000 -0.000000
vn -1.000000 0.000000 0.000002
vn -1.000000 0.000000 0.000002
vn -1.000000 0.000000 0.000002
vn -1.000000 0.000000 0.000002
vn 0.000000 -1.000000 0.000000
vn 0.000000 -1.000000 0.000000
vn 0.000000 -1.000000 0.000000
vn 0.000000 -1.000000 0.000000
vn 1.000000 0.000000 -0.000002
vn 1.000000 0.000000 -0.000002
vn 1.000000 0.000000 -0.000002
vn 1.000000 0.000000 -0.000002
s off
g pCube1
usemtl lambert2SG
f 21/27/1 22/40/2 23/39/3 24/38/4
f 3/36/5 4/34/6 6/6/7 5/5/8
f 5/5/9 6/6/10 8/8/11 7/7/12
f 7/7/13 8/8/14 2/10/15 1/9/16
f 2/33/17 8/11/18 6/12/19 4/35/20
f 7/13/21 1/31/22 3/32/23 5/14/24
s 1
f 1/1/25 2/2/26 10/16/27 9/15/28
f 2/2/26 4/4/29 11/17/30 10/16/27
f 4/4/29 3/3/31 12/18/32 11/17/30
f 3/3/31 1/1/25 9/15/28 12/18/32
s off
f 9/15/33 10/16/34 14/20/35 13/19/36
f 10/16/37 11/17/38 15/21/39 14/20/40
f 11/17/41 12/18/42 16/22/43 15/21/44
f 12/18/45 9/15/46 13/19/47 16/22/48
s 2
f 13/19/49 14/20/50 18/24/51 17/23/52
f 14/20/50 15/21/53 19/25/54 18/24/51
f 15/21/53 16/22/55 20/26/56 19/25/54
f 16/22/55 13/19/49 17/23/52 20/26/56
s off
f 17/23/57 18/24/58 22/28/59 21/37/60
f 18/24/61 19/25/62 23/29/63 22/28/64
f 19/25/65 20/26/66 24/30/67 23/29/68
usemtl initialShadingGroup
f 20/26/69 17/23/70 21/37/71 24/30/72
