# This file uses centimeters as units for non-parametric coordinates.

mtllib Piture_01.mtl
g default
v -1.992343 1.822898 -0.091976
v -2.699450 2.161772 -0.091976
v -3.406557 1.822898 -0.091976
v -3.699450 1.004783 -0.091976
v -3.406557 0.186668 -0.091976
v -2.699450 -0.152206 -0.091976
v -1.992343 0.186668 -0.091976
v -1.699450 1.004783 -0.091976
v -1.992343 1.822898 0.091976
v -2.699450 2.161772 0.091976
v -3.406557 1.822898 0.091976
v -3.699450 1.004783 0.091976
v -3.406557 0.186668 0.091976
v -2.699450 -0.152206 0.091976
v -1.992343 0.186668 0.091976
v -1.699450 1.004783 0.091976
v -2.699450 1.004783 -0.091976
v -2.056897 1.748715 0.091976
v -2.699450 2.055173 0.091976
v -3.342002 1.748715 0.091976
v -3.609541 1.004783 0.091976
v -3.342002 0.260851 0.091976
v -2.699450 -0.045608 0.091976
v -2.056897 0.260850 0.091976
v -1.789358 1.004783 0.091976
v -2.056897 1.748715 0.037760
v -2.699450 2.055173 0.037760
v -3.342002 1.748715 0.037760
v -3.609541 1.004783 0.037760
v -3.342002 0.260851 0.037760
v -2.699450 -0.045608 0.037760
v -2.056897 0.260850 0.037760
v -1.789358 1.004783 0.037760
v -2.095968 1.703698 0.037760
v -2.699450 1.990693 0.037760
v -3.302932 1.703698 0.037760
v -3.554954 1.004783 0.037760
v -3.302932 0.305868 0.037760
v -2.699450 0.018873 0.037760
v -2.095968 0.305867 0.037760
v -1.843945 1.004783 0.037760
v -2.095968 1.703698 0.006608
v -2.699450 1.990693 0.006608
v -2.699450 1.004783 0.006608
v -3.302932 1.703698 0.006608
v -3.554954 1.004783 0.006608
v -3.302932 0.305868 0.006608
v -2.699450 0.018873 0.006608
v -2.095968 0.305867 0.006608
v -1.843945 1.004783 0.006608
vt 0.610485 0.045765
vt 0.500000 0.000000
vt 0.389515 0.045765
vt 0.343750 0.156250
vt 0.389515 0.266735
vt 0.500000 0.312500
vt 0.610485 0.266735
vt 0.656250 0.156250
vt 0.375000 0.312500
vt 0.406250 0.312500
vt 0.437500 0.312500
vt 0.468750 0.312500
vt 0.500000 0.312500
vt 0.531250 0.312500
vt 0.562500 0.312500
vt 0.593750 0.312500
vt 0.625000 0.312500
vt 0.375000 0.687500
vt 0.406250 0.687500
vt 0.437500 0.687500
vt 0.468750 0.687500
vt 0.500000 0.687500
vt 0.531250 0.687500
vt 0.562500 0.687500
vt 0.593750 0.687500
vt 0.625000 0.687500
vt 0.610485 0.733265
vt 0.500000 0.687500
vt 0.389515 0.733265
vt 0.343750 0.843750
vt 0.389515 0.954235
vt 0.500000 1.000000
vt 0.610485 0.954235
vt 0.656250 0.843750
vt 0.500000 0.156250
vt 0.500000 0.843750
vt 0.610485 0.954235
vt 0.500000 1.000000
vt 0.389515 0.954235
vt 0.343750 0.843750
vt 0.389515 0.733265
vt 0.500000 0.687500
vt 0.610485 0.733265
vt 0.656250 0.843750
vt 0.610485 0.954235
vt 0.500000 1.000000
vt 0.389515 0.954235
vt 0.343750 0.843750
vt 0.389515 0.733265
vt 0.500000 0.687500
vt 0.610485 0.733265
vt 0.656250 0.843750
vt 0.610485 0.954235
vt 0.500000 1.000000
vt 0.389515 0.954235
vt 0.343750 0.843750
vt 0.389515 0.733265
vt 0.500000 0.687500
vt 0.610485 0.733265
vt 0.656250 0.843750
vt 0.610485 0.954235
vt 0.500000 1.000000
vt 0.389515 0.954235
vt 0.343750 0.843750
vt 0.389515 0.733265
vt 0.500000 0.687500
vt 0.610485 0.733265
vt 0.656250 0.843750
vn 0.432174 0.901790 0.000000
vn 0.432174 0.901790 0.000000
vn 0.432174 0.901790 0.000000
vn 0.432174 0.901790 0.000000
vn -0.432174 0.901790 0.000000
vn -0.432174 0.901790 0.000000
vn -0.432174 0.901790 0.000000
vn -0.432174 0.901790 0.000000
vn -0.941483 0.337060 0.000000
vn -0.941483 0.337060 0.000000
vn -0.941483 0.337060 0.000000
vn -0.941483 0.337060 0.000000
vn -0.941483 -0.337060 0.000000
vn -0.941483 -0.337060 0.000000
vn -0.941483 -0.337060 0.000000
vn -0.941483 -0.337060 0.000000
vn -0.432175 -0.901790 0.000000
vn -0.432175 -0.901790 0.000000
vn -0.432175 -0.901790 0.000000
vn -0.432175 -0.901790 0.000000
vn 0.432174 -0.901790 0.000000
vn 0.432174 -0.901790 0.000000
vn 0.432174 -0.901790 0.000000
vn 0.432174 -0.901790 0.000000
vn 0.941483 -0.337060 0.000000
vn 0.941483 -0.337060 0.000000
vn 0.941483 -0.337060 0.000000
vn 0.941483 -0.337060 0.000000
vn 0.941483 0.337060 0.000000
vn 0.941483 0.337060 0.000000
vn 0.941483 0.337060 0.000000
vn 0.941483 0.337060 0.000000
vn 0.000000 -0.000000 -1.000000
vn 0.000000 -0.000000 -1.000000
vn 0.000000 -0.000000 -1.000000
vn 0.000000 -0.000000 -1.000000
vn 0.000000 -0.000000 -1.000000
vn 0.000000 -0.000000 -1.000000
vn 0.000000 -0.000000 -1.000000
vn 0.000000 -0.000000 -1.000000
vn 0.000000 -0.000000 -1.000000
vn 0.000000 0.000000 1.000000
vn 0.000000 0.000000 1.000000
vn -0.000000 0.000000 1.000000
vn -0.000000 0.000000 1.000000
vn -0.000000 0.000000 1.000000
vn -0.000000 -0.000000 1.000000
vn -0.000000 -0.000000 1.000000
vn 0.000000 -0.000000 1.000000
vn 0.000000 0.000000 1.000000
vn 0.000000 0.000000 1.000000
vn 0.000000 0.000000 1.000000
vn 0.000000 0.000000 1.000000
vn 0.000000 0.000000 1.000000
vn 0.000000 0.000000 1.000000
vn 0.000000 0.000000 1.000000
vn 0.000000 0.000000 1.000000
vn 0.000000 0.000000 1.000000
vn 0.000000 0.000000 1.000000
vn 0.000000 0.000000 1.000000
vn 0.000000 0.000000 1.000000
vn 0.000000 0.000000 1.000000
vn 0.000000 0.000000 1.000000
vn 0.000000 0.000000 1.000000
vn 0.000000 0.000000 1.000000
vn 0.000000 0.000000 1.000000
vn -0.430484 -0.902598 0.000000
vn -0.430484 -0.902598 0.000000
vn -0.430484 -0.902598 0.000000
vn -0.430484 -0.902598 0.000000
vn 0.430484 -0.902598 0.000000
vn 0.430484 -0.902598 0.000000
vn 0.430484 -0.902598 0.000000
vn 0.430484 -0.902598 0.000000
vn 0.940999 -0.338409 0.000000
vn 0.940999 -0.338409 0.000000
vn 0.940999 -0.338409 0.000000
vn 0.940999 -0.338409 0.000000
vn 0.940999 0.338409 0.000000
vn 0.940999 0.338409 0.000000
vn 0.940999 0.338409 0.000000
vn 0.940999 0.338409 0.000000
vn 0.430484 0.902598 0.000000
vn 0.430484 0.902598 0.000000
vn 0.430484 0.902598 0.000000
vn 0.430484 0.902598 0.000000
vn -0.430484 0.902598 0.000000
vn -0.430484 0.902598 0.000000
vn -0.430484 0.902598 0.000000
vn -0.430484 0.902598 0.000000
vn -0.940999 0.338410 0.000000
vn -0.940999 0.338410 0.000000
vn -0.940999 0.338410 0.000000
vn -0.940999 0.338410 0.000000
vn -0.940999 -0.338410 0.000000
vn -0.940999 -0.338410 0.000000
vn -0.940999 -0.338410 0.000000
vn -0.940999 -0.338410 0.000000
vn 0.000000 -0.000000 1.000000
vn 0.000000 -0.000000 1.000000
vn 0.000000 -0.000000 1.000000
vn 0.000000 -0.000000 1.000000
vn 0.000000 -0.000000 1.000000
vn 0.000000 -0.000000 1.000000
vn 0.000000 -0.000000 1.000000
vn 0.000000 -0.000000 1.000000
vn 0.000000 0.000000 1.000000
vn 0.000000 0.000000 1.000000
vn 0.000000 0.000000 1.000000
vn 0.000000 0.000000 1.000000
vn 0.000000 0.000000 1.000000
vn 0.000000 0.000000 1.000000
vn 0.000000 0.000000 1.000000
vn 0.000000 0.000000 1.000000
vn -0.429473 -0.903080 0.000000
vn -0.429473 -0.903080 0.000000
vn -0.429473 -0.903080 0.000000
vn -0.429473 -0.903080 0.000000
vn 0.429473 -0.903080 0.000000
vn 0.429473 -0.903080 0.000000
vn 0.429473 -0.903080 0.000000
vn 0.429473 -0.903080 0.000000
vn 0.940710 -0.339212 0.000000
vn 0.940710 -0.339212 0.000000
vn 0.940710 -0.339212 0.000000
vn 0.940710 -0.339212 0.000000
vn 0.940710 0.339212 0.000000
vn 0.940710 0.339212 0.000000
vn 0.940710 0.339212 0.000000
vn 0.940710 0.339212 0.000000
vn 0.429473 0.903080 0.000000
vn 0.429473 0.903080 0.000000
vn 0.429473 0.903080 0.000000
vn 0.429473 0.903080 0.000000
vn -0.429473 0.903080 0.000000
vn -0.429473 0.903080 0.000000
vn -0.429473 0.903080 0.000000
vn -0.429473 0.903080 0.000000
vn -0.940710 0.339212 0.000000
vn -0.940710 0.339212 0.000000
vn -0.940710 0.339212 0.000000
vn -0.940710 0.339212 0.000000
vn -0.940710 -0.339212 0.000000
vn -0.940710 -0.339212 0.000000
vn -0.940710 -0.339212 0.000000
vn -0.940710 -0.339212 0.000000
s off
g pCylinder1
usemtl initialShadingGroup
f 1/9/1 2/10/2 10/19/3 9/18/4
f 2/10/5 3/11/6 11/20/7 10/19/8
f 3/11/9 4/12/10 12/21/11 11/20/12
f 4/12/13 5/13/14 13/22/15 12/21/16
f 5/13/17 6/14/18 14/23/19 13/22/20
f 6/14/21 7/15/22 15/24/23 14/23/24
f 7/15/25 8/16/26 16/25/27 15/24/28
f 8/16/29 1/17/30 9/26/31 16/25/32
s 1
f 2/2/33 1/1/34 17/35/35
f 3/3/36 2/2/33 17/35/35
f 4/4/37 3/3/36 17/35/35
f 5/5/38 4/4/37 17/35/35
f 6/6/39 5/5/38 17/35/35
f 7/7/40 6/6/39 17/35/35
f 8/8/41 7/7/40 17/35/35
f 1/1/34 8/8/41 17/35/35
s 2
f 42/61/42 43/62/43 44/36/44
f 43/62/43 45/63/45 44/36/44
f 45/63/45 46/64/46 44/36/44
f 46/64/46 47/65/47 44/36/44
f 47/65/47 48/66/48 44/36/44
f 48/66/48 49/67/49 44/36/44
f 49/67/49 50/68/50 44/36/44
f 50/68/50 42/61/42 44/36/44
s 3
f 9/33/51 10/32/52 19/38/53 18/37/54
f 10/32/52 11/31/55 20/39/56 19/38/53
f 11/31/55 12/30/57 21/40/58 20/39/56
f 12/30/57 13/29/59 22/41/60 21/40/58
f 13/29/59 14/28/61 23/42/62 22/41/60
f 14/28/61 15/27/63 24/43/64 23/42/62
f 15/27/63 16/34/65 25/44/66 24/43/64
f 16/34/65 9/33/51 18/37/54 25/44/66
s off
f 18/37/67 19/38/68 27/46/69 26/45/70
f 19/38/71 20/39/72 28/47/73 27/46/74
f 20/39/75 21/40/76 29/48/77 28/47/78
f 21/40/79 22/41/80 30/49/81 29/48/82
f 22/41/83 23/42/84 31/50/85 30/49/86
f 23/42/87 24/43/88 32/51/89 31/50/90
f 24/43/91 25/44/92 33/52/93 32/51/94
f 25/44/95 18/37/96 26/45/97 33/52/98
s 4
f 26/45/99 27/46/100 35/54/101 34/53/102
f 27/46/100 28/47/103 36/55/104 35/54/101
f 28/47/103 29/48/105 37/56/106 36/55/104
f 29/48/105 30/49/107 38/57/108 37/56/106
f 30/49/107 31/50/109 39/58/110 38/57/108
f 31/50/109 32/51/111 40/59/112 39/58/110
f 32/51/111 33/52/113 41/60/114 40/59/112
f 33/52/113 26/45/99 34/53/102 41/60/114
s off
f 34/53/115 35/54/116 43/62/117 42/61/118
f 35/54/119 36/55/120 45/63/121 43/62/122
f 36/55/123 37/56/124 46/64/125 45/63/126
f 37/56/127 38/57/128 47/65/129 46/64/130
f 38/57/131 39/58/132 48/66/133 47/65/134
f 39/58/135 40/59/136 49/67/137 48/66/138
f 40/59/139 41/60/140 50/68/141 49/67/142
f 41/60/143 34/53/144 42/61/145 50/68/146
