# This file uses centimeters as units for non-parametric coordinates.

mtllib Torch.mtl
g default
v 0.104610 0.082624 -0.181190
v -0.104610 0.082624 -0.181190
v -0.209219 0.082624 -0.000000
v -0.104610 0.082624 0.181190
v 0.104610 0.082624 0.181190
v 0.209219 0.082624 -0.000000
v 0.159472 1.643327 -0.276213
v -0.159472 1.643327 -0.276213
v -0.318943 1.643327 -0.000000
v -0.159472 1.643327 0.276213
v 0.159472 1.643327 0.276213
v 0.318943 1.643327 -0.000000
v 0.000000 0.082624 -0.000000
v 0.130235 1.643327 -0.225574
v -0.130235 1.643327 -0.225574
v -0.260470 1.643327 -0.000000
v -0.130235 1.643327 0.225574
v 0.130235 1.643327 0.225574
v 0.260470 1.643327 -0.000000
v 0.130235 1.540321 -0.225574
v -0.130235 1.540321 -0.225574
v -0.000000 1.540321 -0.000000
v -0.260470 1.540321 -0.000000
v -0.130235 1.540321 0.225574
v 0.130235 1.540321 0.225574
v 0.260470 1.540321 -0.000000
v 0.153986 1.499312 -0.266710
v 0.307971 1.499312 -0.000000
v 0.153986 1.499312 0.266710
v -0.153986 1.499312 0.266710
v -0.307971 1.499312 -0.000000
v -0.153986 1.499312 -0.266710
v 0.134235 0.922764 -0.232502
v 0.268470 0.922764 -0.000000
v 0.134235 0.922764 0.232502
v -0.134235 0.922764 0.232502
v -0.268470 0.922764 -0.000000
v -0.134235 0.922764 -0.232502
v 0.128310 0.766540 -0.222240
v 0.256620 0.766540 -0.000000
v 0.128310 0.766540 0.222240
v -0.128310 0.766540 0.222240
v -0.256620 0.766540 -0.000000
v -0.128310 0.766540 -0.222240
v 0.175835 1.499312 -0.308822
v 0.351669 1.499312 -0.000000
v 0.184612 1.643327 -0.314241
v 0.369225 1.643327 -0.000000
v 0.175835 1.499312 0.308822
v 0.184612 1.643327 0.314241
v -0.175835 1.499312 0.308822
v -0.184612 1.643327 0.314241
v -0.351669 1.499312 -0.000000
v -0.369225 1.643327 -0.000000
v -0.175835 1.499312 -0.308823
v -0.184612 1.643327 -0.314241
v 0.146205 0.766540 -0.258021
v 0.292410 0.766541 -0.000000
v 0.155685 0.922764 -0.263873
v 0.311371 0.922764 -0.000000
v 0.146205 0.766540 0.258021
v 0.155685 0.922764 0.263873
v -0.146205 0.766540 0.258021
v -0.155685 0.922764 0.263873
v -0.292410 0.766541 -0.000000
v -0.311371 0.922764 -0.000000
v -0.146205 0.766540 -0.258021
v -0.155685 0.922764 -0.263873
v -0.303446 0.785937 0.348977
v -0.449651 0.785937 0.090956
v -0.312926 0.942160 0.354829
v -0.468611 0.942161 0.090956
v -0.196833 0.634149 0.456235
v -0.615954 0.634150 0.043796
v -0.224009 1.081990 0.465590
v -0.670307 1.081991 0.043796
v -0.196833 0.634149 0.456235
v -0.615954 0.634150 0.043796
v -0.224009 1.081990 0.465590
v -0.670307 1.081991 0.043796
v -0.226603 0.631117 0.465837
v -0.645725 0.631117 0.053398
v -0.253780 1.078958 0.475192
v -0.700077 1.078959 0.053398
vt 0.649347 1.647180
vt 0.649347 1.630527
vt 0.665534 1.630527
vt 0.665534 1.647180
vt 0.649347 1.647180
vt 0.649347 1.630527
vt 0.665534 1.630527
vt 0.665534 1.647180
vt 0.319769 1.042524
vt 0.372085 1.042524
vt 0.372085 1.239997
vt 0.307916 1.239997
vt 0.424402 1.042524
vt 0.436254 1.239997
vt 0.596378 1.045181
vt 0.648694 1.045181
vt 0.648694 1.242653
vt 0.584525 1.242653
vt 0.701011 1.045181
vt 0.712863 1.242653
vt 0.225364 1.427554
vt 0.225364 1.338385
vt 0.266947 1.336820
vt 0.266947 1.427554
vt 0.225364 1.516722
vt 0.266947 1.518287
vt 0.224213 1.127082
vt 0.224213 1.037913
vt 0.265796 1.036348
vt 0.265796 1.127082
vt 0.224213 1.216250
vt 0.265796 1.217815
vt 0.647769 1.260546
vt 0.714901 1.260546
vt 0.724779 1.427017
vt 0.647769 1.427017
vt 0.580637 1.260546
vt 0.570760 1.427017
vt 0.370034 1.261871
vt 0.437166 1.261871
vt 0.447043 1.428342
vt 0.370034 1.428342
vt 0.302902 1.261871
vt 0.293024 1.428342
vt 0.774715 1.673669
vt 0.774715 1.607594
vt 0.814721 1.606095
vt 0.814721 1.673669
vt 0.774715 1.739744
vt 0.814721 1.741243
vt 0.713981 1.719895
vt 0.713981 1.653819
vt 0.753988 1.653819
vt 0.753988 1.721393
vt 0.718948 1.630527
vt 0.758955 1.630527
vt 0.032392 1.104951
vt 0.032392 1.044541
vt 0.084708 1.074746
vt 0.084708 1.014337
vt 0.084708 1.135156
vt 0.137025 1.044541
vt 0.137025 1.104951
vt 0.154384 1.186274
vt 0.154384 1.261482
vt 0.089252 1.223877
vt 0.089252 1.299085
vt 0.089252 1.148670
vt 0.024121 1.261482
vt 0.024121 1.186274
vt 0.190972 1.378915
vt 0.190972 1.471006
vt 0.176350 1.462564
vt 0.176350 1.387357
vt 0.201952 1.371656
vt 0.201952 1.478265
vt 0.111219 1.517051
vt 0.111219 1.500168
vt 0.111219 1.332869
vt 0.111219 1.349753
vt 0.111219 1.318351
vt 0.111219 1.531570
vt 0.031466 1.471006
vt 0.046087 1.462564
vt 0.031466 1.378915
vt 0.046087 1.387357
vt 0.020486 1.371656
vt 0.020486 1.478265
vt 0.109146 1.561720
vt 0.032137 1.606181
vt 0.019977 1.599872
vt 0.109146 1.549102
vt 0.032137 1.695104
vt 0.019977 1.701412
vt 0.186155 1.606181
vt 0.198315 1.599872
vt 0.109146 1.739565
vt 0.109146 1.752182
vt 0.186155 1.695104
vt 0.198315 1.701412
vt 0.497454 1.758188
vt 0.440541 1.791046
vt 0.431378 1.786464
vt 0.497454 1.749022
vt 0.440541 1.856763
vt 0.431378 1.861346
vt 0.554366 1.791046
vt 0.563529 1.786464
vt 0.497453 1.889621
vt 0.497453 1.898787
vt 0.554366 1.856763
vt 0.563529 1.861346
vt 0.586822 1.901613
vt 0.520746 1.939054
vt 0.401784 1.788944
vt 0.342244 1.754569
vt 0.342244 1.743583
vt 0.409818 1.783451
vt 0.282703 1.788944
vt 0.274670 1.783451
vt 0.401784 1.857696
vt 0.409818 1.863189
vt 0.282703 1.857696
vt 0.274670 1.863189
vt 0.342244 1.892072
vt 0.342244 1.903058
vt 0.318951 1.943325
vt 0.251377 1.903456
vt 0.608917 1.928869
vt 0.759380 1.922826
vt 0.755959 1.930069
vt 0.605496 1.936112
vt 0.607133 1.905437
vt 0.764378 1.907359
vt 0.768143 1.914430
vt 0.610898 1.912508
vt 0.756054 1.053275
vt 0.816463 1.053579
vt 0.822312 1.251084
vt 0.748217 1.250711
vt 0.482017 1.042554
vt 0.542427 1.042554
vt 0.549270 1.240026
vt 0.475174 1.240026
vt 0.322203 1.507074
vt 0.322203 1.582282
vt 0.292462 1.582282
vt 0.292462 1.507074
vt 0.322203 1.619886
vt 0.292462 1.619886
vt 0.322203 1.469470
vt 0.292462 1.469470
vt 0.327226 1.582282
vt 0.327226 1.507074
vt 0.356967 1.507074
vt 0.356967 1.582282
vt 0.327226 1.469470
vt 0.356967 1.469471
vt 0.327226 1.619886
vt 0.356967 1.619886
vt 0.225384 1.326551
vt 0.225384 1.225011
vt 0.266967 1.222476
vt 0.266967 1.329085
vt 0.266656 1.525741
vt 0.266656 1.627281
vt 0.225073 1.629815
vt 0.225073 1.523206
vt 0.471689 1.258962
vt 0.549207 1.258962
vt 0.554909 1.425433
vt 0.465986 1.425433
vt 0.747284 1.260792
vt 0.824800 1.261182
vt 0.829665 1.427679
vt 0.740743 1.427232
vt 0.837890 1.684945
vt 0.837890 1.610063
vt 0.877896 1.607635
vt 0.877896 1.687373
vt 0.882863 1.727640
vt 0.842857 1.725212
vt 0.709761 1.632954
vt 0.709761 1.707837
vt 0.669754 1.710265
vt 0.669754 1.630527
vt 0.755615 1.828560
vt 0.795622 1.823704
vt 0.834493 1.866292
vt 0.719806 1.880211
vt 0.795622 1.786263
vt 0.834493 1.758961
vt 0.755615 1.788691
vt 0.719807 1.765921
vt 0.594434 1.756911
vt 0.709120 1.763870
vt 0.708343 1.771494
vt 0.593657 1.764534
vt 0.593657 1.871865
vt 0.708343 1.885784
vt 0.865168 1.747134
vt 0.879087 1.861819
vt 0.871463 1.862596
vt 0.857544 1.747910
vn 0.000000 -0.059914 -0.998204
vn 0.000000 -0.059914 -0.998204
vn 0.000000 -0.059914 -0.998204
vn 0.000000 -0.059914 -0.998204
vn -0.864470 -0.059914 -0.499102
vn -0.864470 -0.059914 -0.499102
vn -0.864470 -0.059914 -0.499102
vn -0.864470 -0.059914 -0.499102
vn -0.864470 -0.059914 0.499101
vn -0.864470 -0.059914 0.499101
vn -0.864470 -0.059914 0.499101
vn -0.864470 -0.059914 0.499101
vn 0.000000 -0.059914 0.998204
vn 0.000000 -0.059914 0.998204
vn 0.000000 -0.059914 0.998204
vn 0.000000 -0.059914 0.998204
vn 0.864470 -0.059914 0.499101
vn 0.864470 -0.059914 0.499102
vn 0.864470 -0.059914 0.499102
vn 0.864470 -0.059914 0.499102
vn 0.864470 -0.059914 -0.499101
vn 0.864470 -0.059914 -0.499101
vn 0.864470 -0.059914 -0.499101
vn 0.864470 -0.059914 -0.499101
vn 0.000000 -1.000000 0.000000
vn 0.000000 -1.000000 0.000000
vn 0.000000 -1.000000 -0.000000
vn 0.000000 -1.000000 -0.000000
vn 0.000000 -1.000000 0.000000
vn 0.000000 -1.000000 -0.000000
vn 0.000000 -1.000000 -0.000000
vn 0.000000 1.000000 0.000000
vn 0.000000 1.000000 0.000000
vn 0.000000 1.000000 0.000000
vn 0.000000 1.000000 0.000000
vn 0.000000 1.000000 0.000000
vn 0.000000 1.000000 0.000000
vn 0.000000 1.000000 0.000000
vn 0.000001 1.000000 -0.000003
vn -0.000001 1.000000 -0.000002
vn 0.000000 1.000000 -0.000000
vn 0.000000 1.000000 -0.000000
vn -0.000002 1.000000 0.000000
vn 0.000000 1.000000 0.000000
vn -0.000001 1.000000 0.000003
vn 0.000000 1.000000 0.000000
vn 0.000001 1.000000 0.000003
vn 0.000000 1.000000 0.000000
vn 0.000002 1.000000 -0.000000
vn 0.000000 1.000000 -0.000000
vn -0.000000 0.000000 1.000000
vn -0.000000 0.000000 1.000000
vn -0.000000 0.000000 1.000000
vn -0.000000 0.000000 1.000000
vn 0.866025 -0.000000 0.500001
vn 0.866025 -0.000000 0.500001
vn 0.866025 -0.000000 0.500001
vn 0.866025 -0.000000 0.500001
vn 0.866025 0.000000 -0.500001
vn 0.866025 0.000000 -0.500001
vn 0.866025 0.000000 -0.500001
vn 0.866025 0.000000 -0.500001
vn 0.000000 -0.000000 -1.000000
vn 0.000000 -0.000000 -1.000000
vn 0.000000 -0.000000 -1.000000
vn 0.000000 -0.000000 -1.000000
vn -0.866025 0.000000 -0.500000
vn -0.866025 0.000000 -0.500000
vn -0.866025 0.000000 -0.500000
vn -0.866025 0.000000 -0.500000
vn -0.866025 0.000001 0.500001
vn -0.866025 0.000001 0.500001
vn -0.866025 0.000001 0.500001
vn -0.866025 0.000001 0.500001
vn 0.862217 -0.088214 -0.498799
vn 0.862217 -0.088214 -0.498799
vn 0.862217 -0.088214 -0.498799
vn 0.862217 -0.088214 -0.498799
vn 0.862217 -0.088214 0.498799
vn 0.862217 -0.088214 0.498799
vn 0.862217 -0.088214 0.498799
vn 0.862217 -0.088214 0.498799
vn -0.000000 -0.037600 0.999293
vn -0.000000 -0.037600 0.999293
vn -0.000000 -0.037600 0.999293
vn -0.000000 -0.037600 0.999293
vn -0.862217 -0.088214 0.498799
vn -0.862217 -0.088214 0.498799
vn -0.862217 -0.088214 0.498799
vn -0.862217 -0.088214 0.498799
vn -0.862217 -0.088214 -0.498799
vn -0.862217 -0.088214 -0.498799
vn -0.862217 -0.088214 -0.498799
vn -0.862217 -0.088214 -0.498799
vn 0.000000 -0.037600 -0.999293
vn 0.000000 -0.037600 -0.999293
vn 0.000000 -0.037600 -0.999293
vn 0.000000 -0.037600 -0.999293
vn 0.864505 -0.059229 -0.499122
vn 0.864505 -0.059229 -0.499122
vn 0.864505 -0.059229 -0.499122
vn 0.864505 -0.059229 -0.499122
vn 0.864505 -0.059229 0.499123
vn 0.864505 -0.059229 0.499123
vn 0.864505 -0.059229 0.499123
vn 0.864505 -0.059229 0.499123
vn 0.000000 -0.059229 0.998244
vn 0.000000 -0.059229 0.998244
vn 0.000000 -0.059229 0.998245
vn 0.000000 -0.059229 0.998245
vn -0.864505 -0.059229 0.499122
vn -0.864505 -0.059229 0.499122
vn -0.864505 -0.059229 0.499122
vn -0.864505 -0.059229 0.499122
vn -0.864505 -0.059229 -0.499123
vn -0.864505 -0.059229 -0.499123
vn -0.864505 -0.059229 -0.499123
vn -0.864505 -0.059229 -0.499123
vn 0.000000 -0.059229 -0.998244
vn 0.000000 -0.059229 -0.998244
vn 0.000000 -0.059229 -0.998245
vn 0.000000 -0.059229 -0.998245
vn 0.862267 -0.087830 -0.498780
vn 0.862267 -0.087830 -0.498780
vn 0.862267 -0.087830 -0.498780
vn 0.862267 -0.087830 -0.498780
vn 0.862267 -0.087830 0.498780
vn 0.862267 -0.087830 0.498780
vn 0.862267 -0.087830 0.498780
vn 0.862267 -0.087830 0.498780
vn 0.000000 -0.037435 0.999299
vn 0.000000 -0.037435 0.999299
vn 0.000000 -0.037435 0.999299
vn 0.000000 -0.037435 0.999299
vn -0.692288 -0.070516 0.718168
vn -0.692288 -0.070516 0.718168
vn -0.692288 -0.070516 0.718168
vn -0.692288 -0.070516 0.718168
vn -0.862267 -0.087830 -0.498780
vn -0.862267 -0.087830 -0.498780
vn -0.862267 -0.087830 -0.498780
vn -0.862267 -0.087830 -0.498780
vn 0.000000 -0.037435 -0.999299
vn 0.000000 -0.037435 -0.999299
vn 0.000000 -0.037435 -0.999299
vn 0.000000 -0.037435 -0.999299
vn 0.000004 -1.000000 -0.000000
vn 0.000002 -1.000000 -0.000002
vn 0.000002 -1.000000 -0.000002
vn 0.000004 -1.000000 -0.000000
vn 0.000002 1.000000 -0.000000
vn 0.000001 1.000000 -0.000004
vn 0.000002 -1.000000 0.000002
vn 0.000002 -1.000000 0.000002
vn 0.000001 1.000000 0.000004
vn -0.000002 -1.000000 0.000002
vn -0.000002 -1.000000 0.000002
vn -0.000001 1.000000 0.000004
vn -0.000004 -1.000000 0.000000
vn -0.000004 -1.000000 0.000000
vn -0.000002 1.000000 0.000000
vn -0.000002 -1.000000 -0.000002
vn -0.000002 -1.000000 -0.000002
vn -0.000001 1.000000 -0.000004
vn 0.000004 -1.000000 -0.000000
vn 0.000002 -1.000000 -0.000002
vn 0.000002 -1.000000 -0.000002
vn 0.000004 -1.000000 -0.000000
vn 0.000000 1.000000 -0.000002
vn 0.000001 1.000000 0.000000
vn 0.000001 1.000000 0.000000
vn 0.000000 1.000000 -0.000002
vn 0.000002 -1.000000 0.000002
vn 0.000002 -1.000000 0.000002
vn 0.000000 1.000000 0.000002
vn 0.000000 1.000000 0.000002
vn -0.000002 -1.000000 0.000002
vn -0.075235 -0.996254 0.042631
vn -0.000000 1.000000 0.000002
vn 0.074176 0.996285 -0.043763
vn -0.000004 -1.000000 0.000000
vn -0.075660 -0.996212 0.042871
vn -0.000001 1.000000 -0.000000
vn 0.073760 0.996326 -0.043518
vn -0.000002 -1.000000 -0.000002
vn -0.000002 -1.000000 -0.000002
vn -0.000000 1.000000 -0.000002
vn -0.000000 1.000000 -0.000002
vn -0.092378 -0.994347 0.052345
vn -0.092378 -0.994347 0.052345
vn 0.500524 -0.002057 0.865720
vn 0.500524 -0.002057 0.865720
vn 0.500524 -0.002057 0.865720
vn 0.500524 -0.002057 0.865720
vn 0.091448 0.994347 -0.053954
vn 0.091448 0.994347 -0.053954
vn -0.505431 -0.061342 -0.860684
vn -0.505431 -0.061342 -0.860684
vn -0.505431 -0.061342 -0.860684
vn -0.505431 -0.061342 -0.860684
vn 0.542986 -0.138984 -0.828160
vn 0.749790 -0.139121 -0.646885
vn 0.749533 -0.143934 -0.646129
vn 0.529096 -0.130459 -0.838474
vn 0.718938 0.281828 -0.635375
vn 0.719688 0.278147 -0.636147
vn 0.513330 0.250872 -0.820705
vn 0.506324 0.244692 -0.826899
vn 0.000000 0.000000 0.000000
vn 0.000000 0.000000 0.000000
vn 0.000000 0.000000 0.000000
vn 0.000000 0.000000 0.000000
vn 0.000000 0.000000 0.000000
vn 0.000000 0.000000 0.000000
vn 0.000000 0.000000 0.000000
vn 0.000000 0.000000 0.000000
vn 0.000000 0.000000 0.000000
vn 0.000000 0.000000 0.000000
vn 0.000000 0.000000 0.000000
vn 0.000000 0.000000 0.000000
vn 0.000000 0.000000 0.000000
vn 0.000000 0.000000 0.000000
vn 0.000000 0.000000 0.000000
vn 0.000000 0.000000 0.000000
vn 0.076260 -0.994072 -0.077497
vn 0.076260 -0.994072 -0.077497
vn 0.076260 -0.994072 -0.077497
vn 0.076260 -0.994072 -0.077497
vn 0.307087 -0.001244 0.951681
vn 0.307087 -0.001244 0.951681
vn 0.307087 -0.001244 0.951681
vn 0.307087 -0.001244 0.951681
vn -0.075483 0.993943 0.079869
vn -0.075483 0.993943 0.079869
vn -0.075483 0.993943 0.079869
vn -0.075483 0.993943 0.079869
vn -0.303368 -0.036819 -0.952162
vn -0.303368 -0.036819 -0.952162
vn -0.303368 -0.036819 -0.952162
vn -0.303368 -0.036819 -0.952162
s off
g pCylinder1
usemtl lambert2SG
f 1/137/1 2/138/2 44/139/3 39/140/4
f 2/9/5 3/10/6 43/11/7 44/12/8
f 3/10/9 4/13/10 42/14/11 43/11/12
f 4/141/13 5/142/14 41/143/15 42/144/16
f 5/15/17 6/16/18 40/17/19 41/18/20
f 6/16/21 1/19/22 39/20/23 40/17/24
s 1
f 2/57/25 1/58/26 13/59/27
f 3/61/28 2/57/25 13/59/27
f 4/63/29 3/61/28 13/59/27
f 5/62/30 4/63/29 13/59/27
f 6/60/31 5/62/30 13/59/27
f 1/58/26 6/60/31 13/59/27
s 2
f 20/64/32 21/65/33 22/66/34
f 21/65/33 23/67/35 22/66/34
f 23/67/35 24/69/36 22/66/34
f 24/69/36 25/70/37 22/66/34
f 25/70/37 26/68/38 22/66/34
f 26/68/38 20/64/32 22/66/34
s 3
f 7/71/39 8/72/40 15/73/41 14/74/42
f 8/72/40 9/77/43 16/78/44 15/73/41
f 9/77/43 10/83/45 17/84/46 16/78/44
f 10/83/45 11/85/47 18/86/48 17/84/46
f 11/85/47 12/79/49 19/80/50 18/86/48
f 12/79/49 7/71/39 14/74/42 19/80/50
s off
f 14/145/51 15/146/52 21/147/53 20/148/54
f 15/146/55 16/149/56 23/150/57 21/147/58
f 16/159/59 17/153/60 24/156/61 23/160/62
f 17/153/63 18/154/64 25/155/65 24/156/66
f 18/154/67 19/157/68 26/158/69 25/155/70
f 19/151/71 14/145/72 20/148/73 26/152/74
f 46/21/75 45/22/76 47/23/77 48/24/78
f 49/25/79 46/21/80 48/24/81 50/26/82
f 51/161/83 49/162/84 50/163/85 52/164/86
f 53/27/87 51/28/88 52/29/89 54/30/90
f 55/31/91 53/27/92 54/30/93 56/32/94
f 45/165/95 55/166/96 56/167/97 47/168/98
f 34/33/99 33/34/100 27/35/101 28/36/102
f 35/37/103 34/33/104 28/36/105 29/38/106
f 36/169/107 35/170/108 29/171/109 30/172/110
f 37/39/111 36/40/112 30/41/113 31/42/114
f 38/43/115 37/39/116 31/42/117 32/44/118
f 33/173/119 38/174/120 32/175/121 27/176/122
usemtl initialShadingGroup
f 58/45/123 57/46/124 59/47/125 60/48/126
f 61/49/127 58/45/128 60/48/129 62/50/130
f 63/177/131 61/178/132 62/179/133 64/180/134
f 82/199/135 81/198/136 83/197/137 84/200/138
f 67/51/139 65/52/140 66/53/141 68/54/142
f 57/183/143 67/184/144 68/185/145 59/186/146
s 4
usemtl lambert2SG
f 28/89/147 27/90/148 45/91/149 46/92/150
s 3
f 7/71/39 12/79/49 48/81/151 47/75/152
s 4
f 29/95/153 28/89/147 46/92/150 49/96/154
s 3
f 12/79/49 11/85/47 50/87/155 48/81/151
s 4
f 30/99/156 29/95/153 49/96/154 51/100/157
s 3
f 11/85/47 10/83/45 52/88/158 50/87/155
s 4
f 31/97/159 30/99/156 51/100/157 53/98/160
s 3
f 10/83/45 9/77/43 54/82/161 52/88/158
s 4
f 32/93/162 31/97/159 53/98/160 55/94/163
s 3
f 9/77/43 8/72/40 56/76/164 54/82/161
s 4
f 27/90/148 32/93/162 55/94/163 45/91/149
s 3
f 8/72/40 7/71/39 47/75/152 56/76/164
s 5
usemtl initialShadingGroup
f 40/101/165 39/102/166 57/103/167 58/104/168
s 6
f 33/115/169 34/116/170 60/117/171 59/118/172
s 5
f 41/107/173 40/101/165 58/104/168 61/108/174
s 6
f 34/116/170 35/119/175 62/120/176 60/117/171
s 5
f 42/111/177 41/107/173 61/108/174 63/112/178
s 6
f 35/119/175 36/123/179 64/124/180 62/120/176
s 5
f 43/109/181 42/111/177 63/112/178 65/110/182
s 6
f 36/123/179 37/125/183 66/126/184 64/124/180
s 5
f 44/105/185 43/109/181 65/110/182 67/106/186
s 6
f 37/125/183 38/121/187 68/122/188 66/126/184
s 5
f 39/102/166 44/105/185 67/106/186 57/103/167
s 6
f 38/121/187 33/115/169 59/118/172 68/122/188
s 5
f 65/110/182 63/112/178 69/113/189 70/114/190
s off
f 63/177/191 64/180/192 71/181/193 69/182/194
s 6
f 64/124/180 66/126/184 72/127/195 71/128/196
s off
f 66/53/197 65/52/198 70/55/199 72/56/200
s 7
f 70/188/201 69/191/202 73/192/203 74/189/204
f 69/191/202 71/193/205 75/194/206 73/192/203
f 71/193/205 72/187/207 76/190/208 75/194/206
f 72/187/207 70/188/201 74/189/204 76/190/208
s off
f 74/1/209 73/2/210 77/6/211 78/5/212
f 73/2/213 75/3/214 79/7/215 77/6/216
f 75/3/217 76/4/218 80/8/219 79/7/220
f 76/4/221 74/1/222 78/5/223 80/8/224
f 78/129/225 77/130/226 81/131/227 82/132/228
f 77/195/229 79/196/230 83/197/231 81/198/232
f 79/133/233 80/134/234 84/135/235 83/136/236
f 80/201/237 78/202/238 82/203/239 84/204/240
