# This file uses centimeters as units for non-parametric coordinates.

mtllib Torch.mtl
g default
v 0.104610 0.082624 -0.181190
v -0.104610 0.082624 -0.181190
v -0.209219 0.082624 -0.000000
v -0.104610 0.082624 0.181190
v 0.104610 0.082624 0.181190
v 0.209219 0.082624 -0.000000
v 0.159472 1.643327 -0.276213
v -0.159472 1.643327 -0.276213
v -0.318943 1.643327 -0.000000
v -0.159472 1.643327 0.276213
v 0.159472 1.643327 0.276213
v 0.318943 1.643327 -0.000000
v 0.000000 0.082624 -0.000000
v 0.130235 1.643327 -0.225574
v -0.130235 1.643327 -0.225574
v -0.260470 1.643327 -0.000000
v -0.130235 1.643327 0.225574
v 0.130235 1.643327 0.225574
v 0.260470 1.643327 -0.000000
v 0.130235 1.540321 -0.225574
v -0.130235 1.540321 -0.225574
v -0.000000 1.540321 -0.000000
v -0.260470 1.540321 -0.000000
v -0.130235 1.540321 0.225574
v 0.130235 1.540321 0.225574
v 0.260470 1.540321 -0.000000
v 0.153986 1.499312 -0.266710
v 0.307971 1.499312 -0.000000
v 0.153986 1.499312 0.266710
v -0.153986 1.499312 0.266710
v -0.307971 1.499312 -0.000000
v -0.153986 1.499312 -0.266710
v 0.134235 0.922764 -0.232502
v 0.268470 0.922764 -0.000000
v 0.134235 0.922764 0.232502
v -0.134235 0.922764 0.232502
v -0.268470 0.922764 -0.000000
v -0.134235 0.922764 -0.232502
v 0.128310 0.766540 -0.222240
v 0.256620 0.766540 -0.000000
v 0.128310 0.766540 0.222240
v -0.128310 0.766540 0.222240
v -0.256620 0.766540 -0.000000
v -0.128310 0.766540 -0.222240
v 0.175835 1.499312 -0.308822
v 0.351669 1.499312 -0.000000
v 0.184612 1.643327 -0.314241
v 0.369225 1.643327 -0.000000
v 0.175835 1.499312 0.308822
v 0.184612 1.643327 0.314241
v -0.175835 1.499312 0.308822
v -0.184612 1.643327 0.314241
v -0.351669 1.499312 -0.000000
v -0.369225 1.643327 -0.000000
v -0.175835 1.499312 -0.308823
v -0.184612 1.643327 -0.314241
v 0.146205 0.766540 -0.258021
v 0.292410 0.766541 -0.000000
v 0.155685 0.922764 -0.263873
v 0.311371 0.922764 -0.000000
v 0.146205 0.766540 0.258021
v 0.155685 0.922764 0.263873
v -0.146205 0.766540 0.258021
v -0.155685 0.922764 0.263873
v -0.292410 0.766541 -0.000000
v -0.311371 0.922764 -0.000000
v -0.146205 0.766540 -0.258021
v -0.155685 0.922764 -0.263873
v -0.303446 0.785937 0.348977
v -0.449651 0.785937 0.090956
v -0.312926 0.942160 0.354829
v -0.468611 0.942161 0.090956
v -0.196833 0.634149 0.456235
v -0.615954 0.634150 0.043796
v -0.224009 1.081990 0.465590
v -0.670307 1.081991 0.043796
v -0.196833 0.634149 0.456235
v -0.615954 0.634150 0.043796
v -0.224009 1.081990 0.465590
v -0.670307 1.081991 0.043796
v -0.226603 0.631117 0.465837
v -0.645725 0.631117 0.053398
v -0.253780 1.078958 0.475192
v -0.700077 1.078959 0.053398
vt 0.578125 0.020934
vt 0.421875 0.020934
vt 0.343750 0.156250
vt 0.421875 0.291566
vt 0.578125 0.291566
vt 0.656250 0.156250
vt 0.375000 0.312500
vt 0.416667 0.312500
vt 0.458333 0.312500
vt 0.500000 0.312500
vt 0.541667 0.312500
vt 0.583333 0.312500
vt 0.625000 0.312500
vt 0.375000 0.687500
vt 0.416667 0.687500
vt 0.458333 0.687500
vt 0.500000 0.687500
vt 0.541667 0.687500
vt 0.583333 0.687500
vt 0.625000 0.687500
vt 0.578125 0.708434
vt 0.421875 0.708434
vt 0.343750 0.843750
vt 0.421875 0.979066
vt 0.578125 0.979066
vt 0.656250 0.843750
vt 0.500000 0.156250
vt 0.500000 0.843750
vt 0.578125 0.979066
vt 0.421875 0.979066
vt 0.343750 0.843750
vt 0.421875 0.708434
vt 0.578125 0.708434
vt 0.656250 0.843750
vt 0.578125 0.979066
vt 0.421875 0.979066
vt 0.343750 0.843750
vt 0.421875 0.708434
vt 0.578125 0.708434
vt 0.656250 0.843750
vt 0.625000 0.650000
vt 0.375000 0.650000
vt 0.583333 0.650000
vt 0.541667 0.650000
vt 0.500000 0.650000
vt 0.458333 0.650000
vt 0.416667 0.650000
vt 0.625000 0.515000
vt 0.375000 0.515000
vt 0.583333 0.515000
vt 0.541667 0.515000
vt 0.500000 0.515000
vt 0.458333 0.515000
vt 0.416667 0.515000
vt 0.625000 0.474500
vt 0.375000 0.474500
vt 0.583333 0.474500
vt 0.541667 0.474500
vt 0.500000 0.474500
vt 0.458333 0.474500
vt 0.416667 0.474500
vt 0.583333 0.650000
vt 0.625000 0.650000
vt 0.625000 0.687500
vt 0.583333 0.687500
vt 0.541667 0.650000
vt 0.541667 0.687500
vt 0.500000 0.650000
vt 0.500000 0.687500
vt 0.458333 0.650000
vt 0.458333 0.687500
vt 0.416667 0.650000
vt 0.416667 0.687500
vt 0.375000 0.650000
vt 0.375000 0.687500
vt 0.583333 0.474500
vt 0.625000 0.474500
vt 0.625000 0.515000
vt 0.583333 0.515000
vt 0.541667 0.474500
vt 0.541667 0.515000
vt 0.500000 0.474500
vt 0.500000 0.515000
vt 0.458333 0.474500
vt 0.458333 0.515000
vt 0.416667 0.474500
vt 0.416667 0.515000
vt 0.375000 0.474500
vt 0.375000 0.515000
vt 0.458333 0.474500
vt 0.500000 0.474500
vt 0.500000 0.515000
vt 0.458333 0.515000
vt 0.458333 0.474500
vt 0.500000 0.474500
vt 0.500000 0.515000
vt 0.458333 0.515000
vt 0.458333 0.474500
vt 0.500000 0.474500
vt 0.500000 0.515000
vt 0.458333 0.515000
vt 0.458333 0.474500
vt 0.500000 0.474500
vt 0.500000 0.515000
vt 0.458333 0.515000
vn 0.000000 -0.059914 -0.998204
vn 0.000000 -0.059914 -0.998204
vn 0.000000 -0.059914 -0.998204
vn 0.000000 -0.059914 -0.998204
vn -0.864470 -0.059914 -0.499102
vn -0.864470 -0.059914 -0.499102
vn -0.864470 -0.059914 -0.499102
vn -0.864470 -0.059914 -0.499102
vn -0.864470 -0.059914 0.499101
vn -0.864470 -0.059914 0.499101
vn -0.864470 -0.059914 0.499101
vn -0.864470 -0.059914 0.499101
vn 0.000000 -0.059914 0.998204
vn 0.000000 -0.059914 0.998204
vn 0.000000 -0.059914 0.998204
vn 0.000000 -0.059914 0.998204
vn 0.864470 -0.059914 0.499101
vn 0.864470 -0.059914 0.499102
vn 0.864470 -0.059914 0.499102
vn 0.864470 -0.059914 0.499102
vn 0.864470 -0.059914 -0.499101
vn 0.864470 -0.059914 -0.499101
vn 0.864470 -0.059914 -0.499101
vn 0.864470 -0.059914 -0.499101
vn 0.000000 -1.000000 0.000000
vn 0.000000 -1.000000 0.000000
vn 0.000000 -1.000000 -0.000000
vn 0.000000 -1.000000 -0.000000
vn 0.000000 -1.000000 0.000000
vn 0.000000 -1.000000 -0.000000
vn 0.000000 -1.000000 -0.000000
vn 0.000000 1.000000 0.000000
vn 0.000000 1.000000 0.000000
vn 0.000000 1.000000 0.000000
vn 0.000000 1.000000 0.000000
vn 0.000000 1.000000 0.000000
vn 0.000000 1.000000 0.000000
vn 0.000000 1.000000 0.000000
vn 0.000001 1.000000 -0.000003
vn -0.000001 1.000000 -0.000002
vn 0.000000 1.000000 -0.000000
vn 0.000000 1.000000 -0.000000
vn -0.000002 1.000000 0.000000
vn 0.000000 1.000000 0.000000
vn -0.000001 1.000000 0.000003
vn 0.000000 1.000000 0.000000
vn 0.000001 1.000000 0.000003
vn 0.000000 1.000000 0.000000
vn 0.000002 1.000000 -0.000000
vn 0.000000 1.000000 -0.000000
vn -0.000000 0.000000 1.000000
vn -0.000000 0.000000 1.000000
vn -0.000000 0.000000 1.000000
vn -0.000000 0.000000 1.000000
vn 0.866025 -0.000000 0.500001
vn 0.866025 -0.000000 0.500001
vn 0.866025 -0.000000 0.500001
vn 0.866025 -0.000000 0.500001
vn 0.866025 0.000000 -0.500001
vn 0.866025 0.000000 -0.500001
vn 0.866025 0.000000 -0.500001
vn 0.866025 0.000000 -0.500001
vn 0.000000 -0.000000 -1.000000
vn 0.000000 -0.000000 -1.000000
vn 0.000000 -0.000000 -1.000000
vn 0.000000 -0.000000 -1.000000
vn -0.866025 0.000000 -0.500000
vn -0.866025 0.000000 -0.500000
vn -0.866025 0.000000 -0.500000
vn -0.866025 0.000000 -0.500000
vn -0.866025 0.000001 0.500001
vn -0.866025 0.000001 0.500001
vn -0.866025 0.000001 0.500001
vn -0.866025 0.000001 0.500001
vn 0.862217 -0.088214 -0.498799
vn 0.862217 -0.088214 -0.498799
vn 0.862217 -0.088214 -0.498799
vn 0.862217 -0.088214 -0.498799
vn 0.862217 -0.088214 0.498799
vn 0.862217 -0.088214 0.498799
vn 0.862217 -0.088214 0.498799
vn 0.862217 -0.088214 0.498799
vn -0.000000 -0.037600 0.999293
vn -0.000000 -0.037600 0.999293
vn -0.000000 -0.037600 0.999293
vn -0.000000 -0.037600 0.999293
vn -0.862217 -0.088214 0.498799
vn -0.862217 -0.088214 0.498799
vn -0.862217 -0.088214 0.498799
vn -0.862217 -0.088214 0.498799
vn -0.862217 -0.088214 -0.498799
vn -0.862217 -0.088214 -0.498799
vn -0.862217 -0.088214 -0.498799
vn -0.862217 -0.088214 -0.498799
vn 0.000000 -0.037600 -0.999293
vn 0.000000 -0.037600 -0.999293
vn 0.000000 -0.037600 -0.999293
vn 0.000000 -0.037600 -0.999293
vn 0.864505 -0.059229 -0.499122
vn 0.864505 -0.059229 -0.499122
vn 0.864505 -0.059229 -0.499122
vn 0.864505 -0.059229 -0.499122
vn 0.864505 -0.059229 0.499123
vn 0.864505 -0.059229 0.499123
vn 0.864505 -0.059229 0.499123
vn 0.864505 -0.059229 0.499123
vn 0.000000 -0.059229 0.998244
vn 0.000000 -0.059229 0.998244
vn 0.000000 -0.059229 0.998245
vn 0.000000 -0.059229 0.998245
vn -0.864505 -0.059229 0.499122
vn -0.864505 -0.059229 0.499122
vn -0.864505 -0.059229 0.499122
vn -0.864505 -0.059229 0.499122
vn -0.864505 -0.059229 -0.499123
vn -0.864505 -0.059229 -0.499123
vn -0.864505 -0.059229 -0.499123
vn -0.864505 -0.059229 -0.499123
vn 0.000000 -0.059229 -0.998244
vn 0.000000 -0.059229 -0.998244
vn 0.000000 -0.059229 -0.998245
vn 0.000000 -0.059229 -0.998245
vn 0.862267 -0.087830 -0.498780
vn 0.862267 -0.087830 -0.498780
vn 0.862267 -0.087830 -0.498780
vn 0.862267 -0.087830 -0.498780
vn 0.862267 -0.087830 0.498780
vn 0.862267 -0.087830 0.498780
vn 0.862267 -0.087830 0.498780
vn 0.862267 -0.087830 0.498780
vn 0.000000 -0.037435 0.999299
vn 0.000000 -0.037435 0.999299
vn 0.000000 -0.037435 0.999299
vn 0.000000 -0.037435 0.999299
vn -0.692288 -0.070516 0.718168
vn -0.692288 -0.070516 0.718168
vn -0.692288 -0.070516 0.718168
vn -0.692288 -0.070516 0.718168
vn -0.862267 -0.087830 -0.498780
vn -0.862267 -0.087830 -0.498780
vn -0.862267 -0.087830 -0.498780
vn -0.862267 -0.087830 -0.498780
vn 0.000000 -0.037435 -0.999299
vn 0.000000 -0.037435 -0.999299
vn 0.000000 -0.037435 -0.999299
vn 0.000000 -0.037435 -0.999299
vn 0.000004 -1.000000 -0.000000
vn 0.000002 -1.000000 -0.000002
vn 0.000002 -1.000000 -0.000002
vn 0.000004 -1.000000 -0.000000
vn 0.000002 1.000000 -0.000000
vn 0.000001 1.000000 -0.000004
vn 0.000002 -1.000000 0.000002
vn 0.000002 -1.000000 0.000002
vn 0.000001 1.000000 0.000004
vn -0.000002 -1.000000 0.000002
vn -0.000002 -1.000000 0.000002
vn -0.000001 1.000000 0.000004
vn -0.000004 -1.000000 0.000000
vn -0.000004 -1.000000 0.000000
vn -0.000002 1.000000 0.000000
vn -0.000002 -1.000000 -0.000002
vn -0.000002 -1.000000 -0.000002
vn -0.000001 1.000000 -0.000004
vn 0.000004 -1.000000 -0.000000
vn 0.000002 -1.000000 -0.000002
vn 0.000002 -1.000000 -0.000002
vn 0.000004 -1.000000 -0.000000
vn 0.000000 1.000000 -0.000002
vn 0.000001 1.000000 0.000000
vn 0.000001 1.000000 0.000000
vn 0.000000 1.000000 -0.000002
vn 0.000002 -1.000000 0.000002
vn 0.000002 -1.000000 0.000002
vn 0.000000 1.000000 0.000002
vn 0.000000 1.000000 0.000002
vn -0.000002 -1.000000 0.000002
vn -0.075235 -0.996254 0.042631
vn -0.000000 1.000000 0.000002
vn 0.074176 0.996285 -0.043763
vn -0.000004 -1.000000 0.000000
vn -0.075660 -0.996212 0.042871
vn -0.000001 1.000000 -0.000000
vn 0.073760 0.996326 -0.043518
vn -0.000002 -1.000000 -0.000002
vn -0.000002 -1.000000 -0.000002
vn -0.000000 1.000000 -0.000002
vn -0.000000 1.000000 -0.000002
vn -0.092378 -0.994347 0.052345
vn -0.092378 -0.994347 0.052345
vn 0.500524 -0.002057 0.865720
vn 0.500524 -0.002057 0.865720
vn 0.500524 -0.002057 0.865720
vn 0.500524 -0.002057 0.865720
vn 0.091448 0.994347 -0.053954
vn 0.091448 0.994347 -0.053954
vn -0.505431 -0.061342 -0.860684
vn -0.505431 -0.061342 -0.860684
vn -0.505431 -0.061342 -0.860684
vn -0.505431 -0.061342 -0.860684
vn 0.542986 -0.138984 -0.828160
vn 0.749790 -0.139121 -0.646885
vn 0.749533 -0.143934 -0.646129
vn 0.529096 -0.130459 -0.838474
vn 0.718938 0.281828 -0.635375
vn 0.719688 0.278147 -0.636147
vn 0.513330 0.250872 -0.820705
vn 0.506324 0.244692 -0.826899
vn 0.000000 0.000000 0.000000
vn 0.000000 0.000000 0.000000
vn 0.000000 0.000000 0.000000
vn 0.000000 0.000000 0.000000
vn 0.000000 0.000000 0.000000
vn 0.000000 0.000000 0.000000
vn 0.000000 0.000000 0.000000
vn 0.000000 0.000000 0.000000
vn 0.000000 0.000000 0.000000
vn 0.000000 0.000000 0.000000
vn 0.000000 0.000000 0.000000
vn 0.000000 0.000000 0.000000
vn 0.000000 0.000000 0.000000
vn 0.000000 0.000000 0.000000
vn 0.000000 0.000000 0.000000
vn 0.000000 0.000000 0.000000
vn 0.076260 -0.994072 -0.077497
vn 0.076260 -0.994072 -0.077497
vn 0.076260 -0.994072 -0.077497
vn 0.076260 -0.994072 -0.077497
vn 0.307087 -0.001244 0.951681
vn 0.307087 -0.001244 0.951681
vn 0.307087 -0.001244 0.951681
vn 0.307087 -0.001244 0.951681
vn -0.075483 0.993943 0.079869
vn -0.075483 0.993943 0.079869
vn -0.075483 0.993943 0.079869
vn -0.075483 0.993943 0.079869
vn -0.303368 -0.036819 -0.952162
vn -0.303368 -0.036819 -0.952162
vn -0.303368 -0.036819 -0.952162
vn -0.303368 -0.036819 -0.952162
s off
g pCylinder1
usemtl initialShadingGroup
f 1/7/1 2/8/2 44/61/3 39/56/4
f 2/8/5 3/9/6 43/60/7 44/61/8
f 3/9/9 4/10/10 42/59/11 43/60/12
f 4/10/13 5/11/14 41/58/15 42/59/16
f 5/11/17 6/12/18 40/57/19 41/58/20
f 6/12/21 1/13/22 39/55/23 40/57/24
s 1
f 2/2/25 1/1/26 13/27/27
f 3/3/28 2/2/25 13/27/27
f 4/4/29 3/3/28 13/27/27
f 5/5/30 4/4/29 13/27/27
f 6/6/31 5/5/30 13/27/27
f 1/1/26 6/6/31 13/27/27
s 2
f 20/35/32 21/36/33 22/28/34
f 21/36/33 23/37/35 22/28/34
f 23/37/35 24/38/36 22/28/34
f 24/38/36 25/39/37 22/28/34
f 25/39/37 26/40/38 22/28/34
f 26/40/38 20/35/32 22/28/34
s 3
f 7/25/39 8/24/40 15/30/41 14/29/42
f 8/24/40 9/23/43 16/31/44 15/30/41
f 9/23/43 10/22/45 17/32/46 16/31/44
f 10/22/45 11/21/47 18/33/48 17/32/46
f 11/21/47 12/26/49 19/34/50 18/33/48
f 12/26/49 7/25/39 14/29/42 19/34/50
s off
f 14/29/51 15/30/52 21/36/53 20/35/54
f 15/30/55 16/31/56 23/37/57 21/36/58
f 16/31/59 17/32/60 24/38/61 23/37/62
f 17/32/63 18/33/64 25/39/65 24/38/66
f 18/33/67 19/34/68 26/40/69 25/39/70
f 19/34/71 14/29/72 20/35/73 26/40/74
f 46/62/75 45/63/76 47/64/77 48/65/78
f 49/66/79 46/62/80 48/65/81 50/67/82
f 51/68/83 49/66/84 50/67/85 52/69/86
f 53/70/87 51/68/88 52/69/89 54/71/90
f 55/72/91 53/70/92 54/71/93 56/73/94
f 45/74/95 55/72/96 56/73/97 47/75/98
f 34/50/99 33/48/100 27/41/101 28/43/102
f 35/51/103 34/50/104 28/43/105 29/44/106
f 36/52/107 35/51/108 29/44/109 30/45/110
f 37/53/111 36/52/112 30/45/113 31/46/114
f 38/54/115 37/53/116 31/46/117 32/47/118
f 33/49/119 38/54/120 32/47/121 27/42/122
f 58/76/123 57/77/124 59/78/125 60/79/126
f 61/80/127 58/76/128 60/79/129 62/81/130
f 63/82/131 61/80/132 62/81/133 64/83/134
f 82/102/135 81/103/136 83/104/137 84/105/138
f 67/86/139 65/84/140 66/85/141 68/87/142
f 57/88/143 67/86/144 68/87/145 59/89/146
s 4
f 28/43/147 27/41/148 45/63/149 46/62/150
s 3
f 7/20/39 12/19/49 48/65/151 47/64/152
s 4
f 29/44/153 28/43/147 46/62/150 49/66/154
s 3
f 12/19/49 11/18/47 50/67/155 48/65/151
s 4
f 30/45/156 29/44/153 49/66/154 51/68/157
s 3
f 11/18/47 10/17/45 52/69/158 50/67/155
s 4
f 31/46/159 30/45/156 51/68/157 53/70/160
s 3
f 10/17/45 9/16/43 54/71/161 52/69/158
s 4
f 32/47/162 31/46/159 53/70/160 55/72/163
s 3
f 9/16/43 8/15/40 56/73/164 54/71/161
s 4
f 27/42/148 32/47/162 55/72/163 45/74/149
s 3
f 8/15/40 7/14/39 47/75/152 56/73/164
s 5
f 40/57/165 39/55/166 57/77/167 58/76/168
s 6
f 33/48/169 34/50/170 60/79/171 59/78/172
s 5
f 41/58/173 40/57/165 58/76/168 61/80/174
s 6
f 34/50/170 35/51/175 62/81/176 60/79/171
s 5
f 42/59/177 41/58/173 61/80/174 63/82/178
s 6
f 35/51/175 36/52/179 64/83/180 62/81/176
s 5
f 43/60/181 42/59/177 63/82/178 65/84/182
s 6
f 36/52/179 37/53/183 66/85/184 64/83/180
s 5
f 44/61/185 43/60/181 65/84/182 67/86/186
s 6
f 37/53/183 38/54/187 68/87/188 66/85/184
s 5
f 39/56/166 44/61/185 67/86/186 57/88/167
s 6
f 38/54/187 33/49/169 59/89/172 68/87/188
s 5
f 65/84/182 63/82/178 69/91/189 70/90/190
s off
f 63/82/191 64/83/192 71/92/193 69/91/194
s 6
f 64/83/180 66/85/184 72/93/195 71/92/196
s off
f 66/85/197 65/84/198 70/90/199 72/93/200
s 7
f 70/90/201 69/91/202 73/95/203 74/94/204
f 69/91/202 71/92/205 75/96/206 73/95/203
f 71/92/205 72/93/207 76/97/208 75/96/206
f 72/93/207 70/90/201 74/94/204 76/97/208
s off
f 74/94/209 73/95/210 77/99/211 78/98/212
f 73/95/213 75/96/214 79/100/215 77/99/216
f 75/96/217 76/97/218 80/101/219 79/100/220
f 76/97/221 74/94/222 78/98/223 80/101/224
f 78/98/225 77/99/226 81/103/227 82/102/228
f 77/99/229 79/100/230 83/104/231 81/103/232
f 79/100/233 80/101/234 84/105/235 83/104/236
f 80/101/237 78/98/238 82/102/239 84/105/240
