# This file uses centimeters as units for non-parametric coordinates.

mtllib Box_01.mtl
g default
v -0.961367 0.001216 0.961367
v 0.961367 0.001216 0.961367
v -0.961367 1.923951 0.961367
v 0.961367 1.923951 0.961367
v -0.961367 1.923951 -0.961367
v 0.961367 1.923951 -0.961367
v -0.961367 0.001216 -0.961367
v 0.961367 0.001216 -0.961367
v -0.769094 1.923951 0.769094
v 0.769094 1.923951 0.769094
v 0.769094 1.923951 -0.769094
v -0.769094 1.923951 -0.769094
v -0.769094 1.853951 0.769094
v 0.769094 1.853951 0.769094
v 0.769094 1.853951 -0.769094
v -0.769094 1.853951 -0.769094
v -0.769094 1.731678 -0.961367
v 0.769094 1.731678 -0.961367
v 0.769094 0.193489 -0.961367
v -0.769094 0.193489 -0.961367
v -0.769094 1.731678 -0.891367
v 0.769094 1.731678 -0.891367
v 0.769094 0.193489 -0.891367
v -0.769094 0.193489 -0.891367
v 0.961367 0.193489 -0.769094
v 0.961367 0.193489 0.769094
v 0.961367 1.731678 -0.769094
v 0.961367 1.731678 0.769094
v 0.891367 0.193489 -0.769094
v 0.891367 0.193489 0.769094
v 0.891367 1.731678 -0.769094
v 0.891367 1.731678 0.769094
v -0.769094 0.001216 -0.769094
v 0.769094 0.001216 -0.769094
v 0.769094 0.001216 0.769094
v -0.769094 0.001216 0.769094
v -0.769094 0.071216 -0.769094
v 0.769094 0.071216 -0.769094
v 0.769094 0.071216 0.769094
v -0.769094 0.071216 0.769094
v -0.769094 0.193489 0.961367
v 0.769094 0.193489 0.961367
v 0.769094 1.731678 0.961367
v -0.769094 1.731678 0.961367
v -0.769094 0.193489 0.891367
v 0.769094 0.193489 0.891367
v 0.769094 1.731678 0.891367
v -0.769094 1.731678 0.891367
v -0.961367 0.193489 -0.769094
v -0.961367 0.193489 0.769094
v -0.961367 1.731678 0.769094
v -0.961367 1.731678 -0.769094
v -0.891367 0.193489 -0.769094
v -0.891367 0.193489 0.769094
v -0.891367 1.731678 0.769094
v -0.891367 1.731678 -0.769094
vt 0.647388 0.782312
vt 0.829209 0.782312
vt 0.829209 0.964133
vt 0.647388 0.964133
vt 0.460247 0.782312
vt 0.642068 0.782312
vt 0.642068 0.964133
vt 0.460247 0.964133
vt 0.339919 0.784516
vt 0.339919 0.966337
vt 0.331645 0.966337
vt 0.331645 0.784516
vt 0.312730 0.784516
vt 0.312730 0.966337
vt 0.304456 0.966337
vt 0.304456 0.784516
vt 0.277267 0.966337
vt 0.277267 0.784516
vt 0.285541 0.784516
vt 0.285541 0.966337
vt 0.258352 0.784516
vt 0.258352 0.966337
vt 0.250078 0.966337
vt 0.250078 0.784516
vt 0.534771 0.030548
vt 0.762047 0.030548
vt 0.739319 0.053275
vt 0.557498 0.053275
vt 0.762047 0.257824
vt 0.739319 0.235096
vt 0.534771 0.257824
vt 0.557498 0.235096
vt 0.168511 0.966337
vt 0.168511 0.784516
vt 0.176785 0.784516
vt 0.176785 0.966337
vt 0.141322 0.966337
vt 0.141322 0.784516
vt 0.149596 0.784516
vt 0.149596 0.966337
vt 0.122407 0.784516
vt 0.122407 0.966337
vt 0.114133 0.966337
vt 0.114133 0.784516
vt 0.086944 0.966337
vt 0.086944 0.784516
vt 0.095218 0.784516
vt 0.095218 0.966337
vt 0.070787 0.271058
vt 0.298063 0.271058
vt 0.275336 0.293786
vt 0.093515 0.293786
vt 0.298063 0.498335
vt 0.275336 0.475607
vt 0.070787 0.498335
vt 0.093515 0.475607
vt 0.408624 0.730175
vt 0.408624 0.548354
vt 0.590445 0.548354
vt 0.590445 0.730175
vt 0.783807 0.548354
vt 0.965628 0.548354
vt 0.965628 0.730175
vt 0.783807 0.730175
vt 0.068157 0.030548
vt 0.295433 0.030548
vt 0.272705 0.053276
vt 0.090884 0.053276
vt 0.295433 0.257824
vt 0.272705 0.235096
vt 0.068157 0.257824
vt 0.090884 0.235096
vt 0.290861 0.966337
vt 0.290861 0.784516
vt 0.299136 0.784516
vt 0.299136 0.966337
vt 0.271947 0.784516
vt 0.271947 0.966337
vt 0.263672 0.966337
vt 0.263672 0.784516
vt 0.244758 0.784516
vt 0.244758 0.966337
vt 0.236483 0.966337
vt 0.236483 0.784516
vt 0.217569 0.784516
vt 0.217569 0.966337
vt 0.209294 0.966337
vt 0.209294 0.784516
vt 0.535980 0.271058
vt 0.763256 0.271058
vt 0.740528 0.293786
vt 0.558708 0.293786
vt 0.763256 0.498335
vt 0.740528 0.475607
vt 0.535980 0.498335
vt 0.558708 0.475607
vt 0.127727 0.966337
vt 0.127727 0.784516
vt 0.136002 0.784516
vt 0.136002 0.966337
vt 0.108813 0.784516
vt 0.108813 0.966337
vt 0.100538 0.966337
vt 0.100538 0.784516
vt 0.073349 0.966337
vt 0.073349 0.784516
vt 0.081624 0.784516
vt 0.081624 0.966337
vt 0.046160 0.966337
vt 0.046160 0.784516
vt 0.054435 0.784516
vt 0.054435 0.966337
vt 0.220863 0.548354
vt 0.402684 0.548354
vt 0.402684 0.730175
vt 0.220863 0.730175
vt 0.596216 0.548354
vt 0.778036 0.548354
vt 0.778036 0.730175
vt 0.596216 0.730175
vt 0.345239 0.966337
vt 0.345239 0.784516
vt 0.353514 0.784516
vt 0.353514 0.966337
vt 0.326325 0.784516
vt 0.326325 0.966337
vt 0.318050 0.966337
vt 0.318050 0.784516
vt 0.301548 0.030548
vt 0.528824 0.030548
vt 0.506097 0.053276
vt 0.324276 0.053276
vt 0.528824 0.257824
vt 0.506097 0.235096
vt 0.301548 0.257824
vt 0.324276 0.235096
vt 0.231163 0.784516
vt 0.231163 0.966337
vt 0.222889 0.966337
vt 0.222889 0.784516
vt 0.203974 0.784516
vt 0.203974 0.966337
vt 0.195700 0.966337
vt 0.195700 0.784516
vt 0.182105 0.966337
vt 0.182105 0.784516
vt 0.190379 0.784516
vt 0.190379 0.966337
vt 0.163191 0.784516
vt 0.163191 0.966337
vt 0.154916 0.966337
vt 0.154916 0.784516
vt 0.303384 0.271058
vt 0.530660 0.271058
vt 0.507932 0.293786
vt 0.326111 0.293786
vt 0.530660 0.498335
vt 0.507932 0.475607
vt 0.303384 0.498335
vt 0.326111 0.475607
vt 0.059755 0.966337
vt 0.059755 0.784516
vt 0.068029 0.784516
vt 0.068029 0.966337
vt 0.032566 0.966337
vt 0.032566 0.784516
vt 0.040840 0.784516
vt 0.040840 0.966337
vn 0.000000 0.000000 1.000000
vn 0.000000 0.000000 1.000000
vn 0.000000 0.000000 1.000000
vn 0.000000 0.000000 1.000000
vn 0.000000 1.000000 0.000000
vn 0.000000 1.000000 0.000000
vn 0.000000 1.000000 0.000000
vn 0.000000 1.000000 0.000000
vn 0.000000 0.000000 -1.000000
vn 0.000000 0.000000 -1.000000
vn 0.000000 0.000000 -1.000000
vn 0.000000 0.000000 -1.000000
vn 0.000000 -1.000000 0.000000
vn 0.000000 -1.000000 0.000000
vn 0.000000 -1.000000 0.000000
vn 0.000000 -1.000000 0.000000
vn 1.000000 0.000000 0.000000
vn 1.000000 0.000000 0.000000
vn 1.000000 0.000000 0.000000
vn 1.000000 0.000000 0.000000
vn -1.000000 0.000000 0.000000
vn -1.000000 0.000000 0.000000
vn -1.000000 0.000000 0.000000
vn -1.000000 0.000000 0.000000
vn 0.000000 1.000000 0.000000
vn 0.000000 1.000000 0.000000
vn 0.000000 1.000000 0.000000
vn 0.000000 1.000000 0.000000
vn 0.000000 1.000000 0.000000
vn 0.000000 1.000000 0.000000
vn 0.000000 1.000000 0.000000
vn 0.000000 1.000000 0.000000
vn 0.000000 0.000000 -1.000000
vn 0.000000 0.000000 -1.000000
vn 0.000000 0.000000 -1.000000
vn 0.000000 0.000000 -1.000000
vn -1.000000 0.000000 0.000000
vn -1.000000 0.000000 0.000000
vn -1.000000 0.000000 0.000000
vn -1.000000 0.000000 0.000000
vn 0.000000 0.000000 1.000000
vn 0.000000 0.000000 1.000000
vn 0.000000 0.000000 1.000000
vn 0.000000 0.000000 1.000000
vn 1.000000 0.000000 0.000000
vn 1.000000 0.000000 0.000000
vn 1.000000 0.000000 0.000000
vn 1.000000 0.000000 0.000000
vn 0.000000 0.000000 -1.000000
vn 0.000000 0.000000 -1.000000
vn 0.000000 0.000000 -1.000000
vn 0.000000 0.000000 -1.000000
vn 0.000000 0.000000 -1.000000
vn 0.000000 0.000000 -1.000000
vn 0.000000 0.000000 -1.000000
vn 0.000000 0.000000 -1.000000
vn 0.000000 -1.000000 0.000000
vn 0.000000 -1.000000 0.000000
vn 0.000000 -1.000000 0.000000
vn 0.000000 -1.000000 0.000000
vn -1.000000 0.000000 0.000000
vn -1.000000 0.000000 0.000000
vn -1.000000 0.000000 0.000000
vn -1.000000 0.000000 0.000000
vn 0.000000 1.000000 0.000000
vn 0.000000 1.000000 0.000000
vn 0.000000 1.000000 0.000000
vn 0.000000 1.000000 0.000000
vn 1.000000 0.000000 0.000000
vn 1.000000 0.000000 0.000000
vn 1.000000 0.000000 0.000000
vn 1.000000 0.000000 0.000000
vn 1.000000 0.000000 0.000000
vn 1.000000 0.000000 0.000000
vn 1.000000 0.000000 0.000000
vn 1.000000 0.000000 0.000000
vn 1.000000 0.000000 0.000000
vn 1.000000 0.000000 0.000000
vn 1.000000 0.000000 0.000000
vn 1.000000 0.000000 0.000000
vn 0.000000 1.000000 0.000000
vn 0.000000 1.000000 0.000000
vn 0.000000 1.000000 0.000000
vn 0.000000 1.000000 0.000000
vn 0.000000 0.000000 1.000000
vn 0.000000 0.000000 1.000000
vn 0.000000 0.000000 1.000000
vn 0.000000 0.000000 1.000000
vn 0.000000 -1.000000 0.000000
vn 0.000000 -1.000000 0.000000
vn 0.000000 -1.000000 0.000000
vn 0.000000 -1.000000 0.000000
vn 0.000000 0.000000 -1.000000
vn 0.000000 0.000000 -1.000000
vn 0.000000 0.000000 -1.000000
vn 0.000000 0.000000 -1.000000
vn 0.000000 -1.000000 0.000000
vn 0.000000 -1.000000 0.000000
vn 0.000000 -1.000000 0.000000
vn 0.000000 -1.000000 0.000000
vn 0.000000 -1.000000 -0.000000
vn 0.000000 -1.000000 -0.000000
vn 0.000000 -1.000000 -0.000000
vn 0.000000 -1.000000 -0.000000
vn 0.000000 0.000000 1.000000
vn 0.000000 0.000000 1.000000
vn 0.000000 0.000000 1.000000
vn 0.000000 0.000000 1.000000
vn -1.000000 0.000000 0.000000
vn -1.000000 0.000000 0.000000
vn -1.000000 0.000000 0.000000
vn -1.000000 0.000000 0.000000
vn 0.000000 0.000000 -1.000000
vn 0.000000 0.000000 -1.000000
vn 0.000000 0.000000 -1.000000
vn 0.000000 0.000000 -1.000000
vn 1.000000 0.000000 0.000000
vn 1.000000 0.000000 0.000000
vn 1.000000 0.000000 0.000000
vn 1.000000 0.000000 0.000000
vn 0.000000 0.000000 1.000000
vn -0.000000 0.000000 1.000000
vn -0.000000 0.000000 1.000000
vn 0.000000 0.000000 1.000000
vn -0.000000 0.000000 1.000000
vn -0.000000 0.000000 1.000000
vn 0.000000 0.000000 1.000000
vn 0.000000 0.000000 1.000000
vn 0.000000 1.000000 0.000000
vn 0.000000 1.000000 0.000000
vn 0.000000 1.000000 0.000000
vn 0.000000 1.000000 0.000000
vn -1.000000 0.000000 0.000000
vn -1.000000 0.000000 0.000000
vn -1.000000 0.000000 0.000000
vn -1.000000 0.000000 0.000000
vn 0.000000 -1.000000 0.000000
vn 0.000000 -1.000000 0.000000
vn 0.000000 -1.000000 0.000000
vn 0.000000 -1.000000 0.000000
vn 1.000000 0.000000 0.000000
vn 1.000000 0.000000 0.000000
vn 1.000000 0.000000 0.000000
vn 1.000000 0.000000 0.000000
vn -1.000000 0.000000 0.000000
vn -1.000000 0.000000 0.000000
vn -1.000000 0.000000 0.000000
vn -1.000000 0.000000 0.000000
vn -1.000000 0.000000 0.000000
vn -1.000000 0.000000 0.000000
vn -1.000000 0.000000 0.000000
vn -1.000000 0.000000 0.000000
vn 0.000000 1.000000 0.000000
vn 0.000000 1.000000 0.000000
vn 0.000000 1.000000 0.000000
vn 0.000000 1.000000 0.000000
vn 0.000000 0.000000 -1.000000
vn 0.000000 0.000000 -1.000000
vn 0.000000 0.000000 -1.000000
vn 0.000000 0.000000 -1.000000
vn 0.000000 -1.000000 0.000000
vn 0.000000 -1.000000 0.000000
vn 0.000000 -1.000000 0.000000
vn 0.000000 -1.000000 0.000000
vn 0.000000 0.000000 1.000000
vn 0.000000 0.000000 1.000000
vn 0.000000 0.000000 1.000000
vn 0.000000 0.000000 1.000000
s off
g pCube1
usemtl initialShadingGroup
f 45/113/1 46/114/2 47/115/3 48/116/4
f 13/57/5 14/58/6 15/59/7 16/60/8
f 21/117/9 22/118/10 23/119/11 24/120/12
f 37/61/13 38/62/14 39/63/15 40/64/16
f 30/1/17 29/2/18 31/3/19 32/4/20
f 53/5/21 54/6/22 55/7/23 56/8/24
s 1
f 3/65/25 4/66/26 10/67/27 9/68/28
f 4/66/26 6/69/29 11/70/30 10/67/27
f 6/69/29 5/71/31 12/72/32 11/70/30
f 5/71/31 3/65/25 9/68/28 12/72/32
s off
f 9/121/33 10/122/34 14/123/35 13/124/36
f 10/9/37 11/10/38 15/11/39 14/12/40
f 11/125/41 12/126/42 16/127/43 15/128/44
f 12/13/45 9/14/46 13/15/47 16/16/48
s 2
f 5/129/49 6/130/50 18/131/51 17/132/52
f 6/130/50 8/133/53 19/134/54 18/131/51
f 8/133/53 7/135/55 20/136/56 19/134/54
f 7/135/55 5/129/49 17/132/52 20/136/56
s off
f 17/73/57 18/74/58 22/75/59 21/76/60
f 18/17/61 19/18/62 23/19/63 22/20/64
f 19/77/65 20/78/66 24/79/67 23/80/68
f 20/21/69 17/22/70 21/23/71 24/24/72
s 3
f 2/25/73 8/26/74 25/27/75 26/28/76
f 8/26/74 6/29/77 27/30/78 25/27/75
f 6/29/77 4/31/79 28/32/80 27/30/78
f 4/31/79 2/25/73 26/28/76 28/32/80
s off
f 26/81/81 25/82/82 29/83/83 30/84/84
f 25/137/85 27/138/86 31/139/87 29/140/88
f 27/85/89 28/86/90 32/87/91 31/88/92
f 28/141/93 26/142/94 30/143/95 32/144/96
s 4
f 7/89/97 8/90/98 34/91/99 33/92/100
f 8/90/98 2/93/101 35/94/102 34/91/99
f 2/93/101 1/95/103 36/96/104 35/94/102
f 1/95/103 7/89/97 33/92/100 36/96/104
s off
f 33/145/105 34/146/106 38/147/107 37/148/108
f 34/33/109 35/34/110 39/35/111 38/36/112
f 35/149/113 36/150/114 40/151/115 39/152/116
f 36/37/117 33/38/118 37/39/119 40/40/120
s 5
f 1/153/121 2/154/122 42/155/123 41/156/124
f 2/154/122 4/157/125 43/158/126 42/155/123
f 4/157/125 3/159/127 44/160/128 43/158/126
f 3/159/127 1/153/121 41/156/124 44/160/128
s off
f 41/97/129 42/98/130 46/99/131 45/100/132
f 42/41/133 43/42/134 47/43/135 46/44/136
f 43/101/137 44/102/138 48/103/139 47/104/140
f 44/45/141 41/46/142 45/47/143 48/48/144
s 6
f 7/49/145 1/50/146 50/51/147 49/52/148
f 1/50/146 3/53/149 51/54/150 50/51/147
f 3/53/149 5/55/151 52/56/152 51/54/150
f 5/55/151 7/49/145 49/52/148 52/56/152
s off
f 49/105/153 50/106/154 54/107/155 53/108/156
f 50/161/157 51/162/158 55/163/159 54/164/160
f 51/109/161 52/110/162 56/111/163 55/112/164
f 52/165/165 49/166/166 53/167/167 56/168/168
